<svg width="70" height="70" viewBox="0 0 70 70" fill="none" xmlns="http://www.w3.org/2000/svg">
<path d="M61.2502 58.3333H58.3335V14.5833C58.3335 13.8097 58.0262 13.0678 57.4792 12.5209C56.9322 11.9739 56.1904 11.6666 55.4168 11.6666C54.6433 11.6666 53.9014 11.9739 53.3544 12.5209C52.8075 13.0678 52.5002 13.8097 52.5002 14.5833V58.3333H46.6668V26.2499C46.6668 25.4764 46.3595 24.7345 45.8126 24.1875C45.2656 23.6405 44.5237 23.3333 43.7502 23.3333C42.9766 23.3333 42.2348 23.6405 41.6878 24.1875C41.1408 24.7345 40.8335 25.4764 40.8335 26.2499V58.3333H35.0002V37.9166C35.0002 37.143 34.6929 36.4012 34.1459 35.8542C33.5989 35.3072 32.857 34.9999 32.0835 34.9999C31.3099 34.9999 30.5681 35.3072 30.0211 35.8542C29.4741 36.4012 29.1668 37.143 29.1668 37.9166V58.3333H23.3335V49.5833C23.3335 48.8097 23.0262 48.0678 22.4792 47.5209C21.9322 46.9739 21.1904 46.6666 20.4168 46.6666C19.6433 46.6666 18.9014 46.9739 18.3544 47.5209C17.8075 48.0678 17.5002 48.8097 17.5002 49.5833V58.3333H11.6668V8.74992C11.6668 7.97637 11.3595 7.2345 10.8126 6.68752C10.2656 6.14054 9.52371 5.83325 8.75016 5.83325C7.97661 5.83325 7.23475 6.14054 6.68777 6.68752C6.14079 7.2345 5.8335 7.97637 5.8335 8.74992V61.2499C5.8335 62.0235 6.14079 62.7653 6.68777 63.3123C7.23475 63.8593 7.97661 64.1666 8.75016 64.1666H61.2502C62.0237 64.1666 62.7656 63.8593 63.3126 63.3123C63.8595 62.7653 64.1668 62.0235 64.1668 61.2499C64.1668 60.4764 63.8595 59.7345 63.3126 59.1875C62.7656 58.6405 62.0237 58.3333 61.2502 58.3333Z" fill="#F8F8F8"/>
</svg>
