<svg version="1.1" id="Layer_1" xmlns="http://www.w3.org/2000/svg" xmlns:xlink="http://www.w3.org/1999/xlink" x="0px" y="0px"
	 width="100px" viewBox="0 0 300 300" enable-background="new 0 0 300 300" xml:space="preserve">
<path fill="#2B1F75" opacity="1.000000" stroke="none"
	d="
M204.000000,301.000000
	C136.000015,301.000000 68.500023,301.000000 1.000027,301.000000
	C1.000018,201.000031 1.000018,101.000061 1.000009,1.000067
	C100.999947,1.000045 200.999893,1.000045 300.999878,1.000022
	C300.999939,100.999939 300.999939,200.999878 300.999969,300.999908
	C268.833344,301.000000 236.666672,301.000000 204.000000,301.000000
M264.365234,156.032211
	C264.311340,151.712051 264.257446,147.391876 264.491669,142.307693
	C264.403107,137.858780 264.314545,133.409882 264.562866,128.292770
	C265.454529,126.039772 266.346161,123.786766 267.964081,121.297981
	C272.934692,117.022560 272.185760,111.485565 266.410065,108.826523
	C265.478943,108.397842 264.975250,107.040756 264.523956,105.376297
	C264.582031,103.235855 264.640106,101.095421 265.197632,98.401894
	C268.628723,97.416878 269.648438,94.600594 268.725952,91.826248
	C268.011475,89.677567 266.065613,87.315269 264.046387,86.359581
	C260.395752,84.631760 256.281555,83.883430 251.772491,82.290443
	C246.509949,80.630798 241.247421,78.971153 235.283691,77.010406
	C230.188141,75.410805 225.092606,73.811211 219.333069,71.872612
	C213.837646,70.797562 208.342239,69.722504 202.088074,68.837173
	C198.049103,70.209381 194.010132,71.581589 189.209167,73.004250
	C185.766830,74.156113 182.324478,75.307968 178.094208,76.625496
	C174.029205,77.979538 169.964203,79.333572 165.112137,80.781837
	C159.369598,82.648407 153.627045,84.514969 147.118408,86.539139
	C143.118729,88.784485 141.163376,94.049660 144.179398,96.740921
	C148.361084,100.472351 147.494995,104.574577 146.209961,108.923401
	C140.573669,110.668312 138.924911,116.559387 142.827682,120.732536
	C143.883087,121.861046 145.117676,123.182961 145.413177,124.595367
	C146.409637,129.358261 147.020569,134.201828 147.566162,139.912827
	C147.700363,144.447586 147.834564,148.982330 147.976685,154.007599
	C147.973526,154.498108 147.970367,154.988632 147.723572,156.331573
	C147.749481,156.920792 147.775391,157.509995 147.590637,158.870041
	C147.531906,163.460159 147.473160,168.050293 146.813400,172.952484
	C145.165863,175.451324 142.977249,177.763611 142.032166,180.504654
	C141.188889,182.950409 141.097351,186.074829 141.894791,188.498032
	C142.323181,189.799774 145.288223,190.883316 147.162903,190.976761
	C152.758102,191.255630 158.380081,190.996750 164.795090,191.093369
	C166.998245,191.045135 168.740906,191.052582 169.517548,194.044144
	C169.908829,195.551407 172.423904,197.210114 174.195831,197.507874
	C177.733292,198.102325 181.420532,197.805527 185.974472,197.955780
	C197.262695,197.705719 208.550919,197.455673 220.756409,197.483429
	C224.856400,197.394623 228.956390,197.305817 233.852859,197.460800
	C238.756546,198.126022 242.893875,197.540009 243.198761,191.373077
	C245.099869,191.192581 246.552307,191.054672 248.933060,191.048950
	C250.918427,191.065033 252.912384,191.206818 254.887466,191.072098
	C259.581726,190.751877 264.267090,190.300797 269.617798,189.549149
	C269.646362,186.325150 270.390686,182.890244 269.518890,179.931534
	C268.474030,176.385300 266.050201,173.245377 264.359528,169.019684
	C264.309357,164.994308 264.259186,160.968933 264.365234,156.032211
M106.848671,219.242905
	C105.614296,219.250427 104.379921,219.257950 102.322754,219.363846
	C96.594330,219.363846 90.865913,219.363846 85.255661,219.363846
	C85.255661,229.102814 85.255661,237.991760 85.255661,246.706711
	C87.856583,246.706711 90.093552,246.706711 92.744415,246.706711
	C92.744415,243.109390 92.744415,239.841858 92.744415,236.481995
	C95.596893,236.297089 98.025063,236.139694 100.572845,235.974548
	C100.572845,234.062714 100.572845,232.466995 100.572845,230.610306
	C99.086853,230.500702 97.698799,230.671692 96.533775,230.240326
	C95.202568,229.747437 94.069801,228.718613 92.850807,227.922668
	C94.132385,227.188843 95.340736,226.068375 96.712105,225.808655
	C98.967453,225.381485 101.328407,225.511948 104.051445,226.240021
	C104.367325,231.497955 104.545784,236.769836 105.077530,242.005844
	C105.251259,243.716537 106.344574,245.333847 107.849159,247.008820
	C110.159744,246.699066 112.470329,246.389313 115.366127,245.461227
	C115.573494,238.353683 115.853378,231.246872 115.924278,224.137970
	C115.937729,222.789124 115.122780,221.432007 114.026939,219.816605
	C111.877716,219.571472 109.728485,219.326340 106.848671,219.242905
M147.299515,246.726410
	C151.124680,247.178207 155.256500,248.438187 156.477661,243.187332
	C159.981339,243.494247 164.784927,242.635056 165.872467,244.261169
	C168.634735,248.391312 171.833679,246.589767 175.574982,246.942673
	C172.570007,238.567978 169.515823,230.679047 166.959335,222.631958
	C165.902008,219.303772 163.822433,219.415848 161.245743,219.414795
	C158.652939,219.413742 156.620819,219.382629 155.555786,222.681137
	C153.208984,229.949326 150.299500,237.035812 146.953735,243.755447
	C146.129333,242.428513 145.304932,241.101562 144.258392,238.890717
	C144.258392,232.600677 144.258392,226.310654 144.258392,219.761169
	C141.598206,219.761169 139.364594,219.761169 136.959167,219.761169
	C136.690430,223.721451 136.434891,227.487213 136.179352,231.252960
	C135.653580,231.349884 135.127808,231.446793 134.602036,231.543701
	C132.933945,229.134872 130.922882,226.890457 129.672134,224.281540
	C127.365921,219.471069 123.853638,218.533890 119.171600,219.970856
	C119.171600,229.002060 119.171600,237.895996 119.171600,246.658813
	C121.732445,246.658813 123.948532,246.658813 126.013969,246.658813
	C126.446419,242.803436 126.838150,239.311005 127.229881,235.818558
	C127.788704,235.759277 128.347519,235.699982 128.906342,235.640686
	C130.568085,238.042603 132.495041,240.306274 133.834595,242.876129
	C136.373459,247.746765 140.008926,248.084030 144.868622,246.247482
	C145.536362,246.165741 146.204117,246.084000 147.299515,246.726410
M69.925087,141.834763
	C79.850029,141.834763 89.774971,141.834763 99.716888,141.834763
	C99.716888,134.225647 99.716888,127.310806 99.716888,119.997482
	C91.337318,119.997482 83.217110,120.065567 75.099251,119.957451
	C72.546829,119.923462 70.000710,119.416351 67.812332,118.868637
	C67.680992,118.544998 67.549660,118.221352 67.208160,117.008797
	C67.274956,113.067680 67.341751,109.126556 68.074883,104.788620
	C68.418877,104.407471 68.762878,104.026314 69.997093,103.376213
	C81.287102,103.376213 92.577110,103.376213 104.051331,103.376213
	C104.051331,95.545670 104.051331,88.270462 104.051331,80.838112
	C102.877037,80.709038 101.905212,80.509933 100.933189,80.509003
	C81.271408,80.490242 61.609573,80.483810 41.947834,80.520706
	C40.824348,80.522812 39.701599,80.916176 38.227493,81.279846
	C38.144539,81.373177 37.975533,81.526581 37.992157,81.550400
	C38.132381,81.751274 38.306545,81.928452 38.723568,83.005547
	C38.723568,116.245415 38.723568,149.485275 38.723568,182.732208
	C60.813656,182.732208 82.378281,182.732208 104.029037,182.732208
	C104.029037,175.209015 104.029037,167.958374 104.029037,160.022873
	C92.193382,160.022873 80.595001,160.022873 68.953781,159.084747
	C68.968086,153.382202 68.982391,147.679672 69.925087,141.834763
M195.873032,229.932526
	C195.767349,231.083725 195.661667,232.234924 195.464249,234.385620
	C192.858826,230.396957 190.537766,227.507431 188.951691,224.259018
	C186.603943,219.450668 183.096756,218.497162 178.286316,219.964264
	C178.286316,228.907272 178.286316,237.799438 178.286316,246.780823
	C180.816086,246.780823 183.065140,246.780823 185.860504,246.780823
	C185.860504,242.209061 185.860504,237.853088 185.860504,232.024323
	C188.623383,236.153809 190.850418,238.832520 192.348541,241.870651
	C194.722824,246.685547 198.161209,248.197266 203.572693,246.394867
	C203.572693,242.070251 203.572693,237.602524 203.572693,233.134781
	C203.572693,228.713486 203.572693,224.292191 203.572693,219.791809
	C200.616776,219.791809 198.378433,219.791809 195.875153,219.791809
	C195.875153,223.104126 195.875153,226.088196 195.873032,229.932526
M214.903290,234.226440
	C215.957916,231.793045 216.412842,228.244431 218.245941,227.258682
	C219.882874,226.378403 223.266785,227.918350 225.473648,229.130051
	C228.421646,230.748657 230.912415,231.149490 233.540115,228.915543
	C231.013672,221.422318 225.134262,217.976791 217.721848,219.522156
	C210.565491,221.014130 206.398605,226.940796 207.048584,234.702988
	C207.647339,241.853348 212.611938,246.738327 219.671295,247.123276
	C227.131226,247.530075 232.121506,243.893890 233.379105,236.418777
	C230.321655,237.065567 227.159561,237.009460 224.834244,238.376602
	C219.920395,241.265594 217.362518,240.675476 214.903290,234.226440
M248.626862,235.992798
	C250.245193,235.992798 251.863525,235.992798 253.591827,235.992798
	C253.591827,233.779190 253.591827,232.072617 253.591827,229.955139
	C250.674042,229.955139 248.079407,229.955139 244.833160,229.955139
	C245.943375,222.580688 252.125748,227.757446 254.845032,224.783646
	C254.845032,223.441132 254.845032,221.672485 254.845032,219.862640
	C248.939682,219.862640 243.241516,219.862640 237.605713,219.862640
	C237.605713,229.060883 237.605713,237.827759 237.605713,246.813538
	C243.436569,246.813538 249.007629,246.813538 254.676147,246.813538
	C254.676147,244.724167 254.676147,242.872681 254.676147,240.681793
	C251.361130,240.681793 248.417068,240.681793 245.473007,240.681793
	C245.125931,240.260605 244.778854,239.839417 244.431763,239.418228
	C245.532410,238.276840 246.633041,237.135452 248.626862,235.992798
M71.641777,236.141708
	C71.641777,234.260223 71.641777,232.378738 71.641777,230.448975
	C65.616127,230.448975 60.059307,230.448975 54.344852,230.448975
	C54.344852,232.598129 54.344852,234.474640 54.344852,236.655197
	C60.054546,236.655197 65.477013,236.655197 71.641777,236.141708
z"/>
<path fill="#FCFCFD" opacity="1.000000" stroke="none"
	d="
M67.451706,119.125786
	C70.000710,119.416351 72.546829,119.923462 75.099251,119.957451
	C83.217110,120.065567 91.337318,119.997482 99.716888,119.997482
	C99.716888,127.310806 99.716888,134.225647 99.716888,141.834763
	C89.774971,141.834763 79.850029,141.834763 69.028145,141.870758
	C67.857437,147.761627 67.569641,153.616074 67.381592,159.473694
	C67.376274,159.639297 68.434380,159.839035 68.996620,160.022858
	C80.595001,160.022873 92.193382,160.022873 104.029037,160.022873
	C104.029037,167.958374 104.029037,175.209015 104.029037,182.732208
	C82.378281,182.732208 60.813656,182.732208 38.723568,182.732208
	C38.723568,149.485275 38.723568,116.245415 38.685852,82.319534
	C38.624928,81.464828 38.601719,81.296135 38.578506,81.127449
	C39.701599,80.916176 40.824348,80.522812 41.947834,80.520706
	C61.609573,80.483810 81.271408,80.490242 100.933189,80.509003
	C101.905212,80.509933 102.877037,80.709038 104.051331,80.838112
	C104.051331,88.270462 104.051331,95.545670 104.051331,103.376213
	C92.577110,103.376213 81.287102,103.376213 69.074142,103.498131
	C67.903648,104.141846 67.656097,104.663643 67.408546,105.185440
	C67.341751,109.126556 67.274956,113.067680 67.239883,117.762505
	C67.331642,118.719406 67.391670,118.922592 67.451706,119.125786
z"/>
<path fill="#FBFBFC" opacity="1.000000" stroke="none"
	d="
M144.478149,246.069092
	C140.008926,248.084030 136.373459,247.746765 133.834595,242.876129
	C132.495041,240.306274 130.568085,238.042603 128.906342,235.640686
	C128.347519,235.699982 127.788704,235.759277 127.229881,235.818558
	C126.838150,239.311005 126.446419,242.803436 126.013969,246.658813
	C123.948532,246.658813 121.732445,246.658813 119.171600,246.658813
	C119.171600,237.895996 119.171600,229.002060 119.171600,219.970856
	C123.853638,218.533890 127.365921,219.471069 129.672134,224.281540
	C130.922882,226.890457 132.933945,229.134872 134.602036,231.543701
	C135.127808,231.446793 135.653580,231.349884 136.179352,231.252960
	C136.434891,227.487213 136.690430,223.721451 136.959167,219.761169
	C139.364594,219.761169 141.598206,219.761169 144.258392,219.761169
	C144.258392,226.310654 144.258392,232.600677 144.275803,239.633362
	C144.354858,242.273697 144.416504,244.171402 144.478149,246.069092
z"/>
<path fill="#F3F3F7" opacity="1.000000" stroke="none"
	d="
M195.874084,229.502396
	C195.875153,226.088196 195.875153,223.104126 195.875153,219.791809
	C198.378433,219.791809 200.616776,219.791809 203.572693,219.791809
	C203.572693,224.292191 203.572693,228.713486 203.572693,233.134781
	C203.572693,237.602524 203.572693,242.070251 203.572693,246.394867
	C198.161209,248.197266 194.722824,246.685547 192.348541,241.870651
	C190.850418,238.832520 188.623383,236.153809 185.860504,232.024323
	C185.860504,237.853088 185.860504,242.209061 185.860504,246.780823
	C183.065140,246.780823 180.816086,246.780823 178.286316,246.780823
	C178.286316,237.799438 178.286316,228.907272 178.286316,219.964264
	C183.096756,218.497162 186.603943,219.450668 188.951691,224.259018
	C190.537766,227.507431 192.858826,230.396957 195.464249,234.385620
	C195.661667,232.234924 195.767349,231.083725 195.874084,229.502396
z"/>
<path fill="#F2F1F6" opacity="1.000000" stroke="none"
	d="
M147.619629,244.196457
	C150.299500,237.035812 153.208984,229.949326 155.555786,222.681137
	C156.620819,219.382629 158.652939,219.413742 161.245743,219.414795
	C163.822433,219.415848 165.902008,219.303772 166.959335,222.631958
	C169.515823,230.679047 172.570007,238.567978 175.574982,246.942673
	C171.833679,246.589767 168.634735,248.391312 165.872467,244.261169
	C164.784927,242.635056 159.981339,243.494247 156.477661,243.187332
	C155.256500,248.438187 151.124680,247.178207 147.257172,246.082458
	C147.349747,245.024490 147.484695,244.610474 147.619629,244.196457
M159.667389,232.446411
	C159.348450,233.751053 159.029510,235.055695 158.663376,236.553421
	C160.743118,236.553421 162.171967,236.553421 164.125092,236.553421
	C163.230011,233.850082 162.446014,231.482193 161.382095,228.268875
	C160.647476,229.974365 160.277603,230.833054 159.667389,232.446411
z"/>
<path fill="#F6F5F9" opacity="1.000000" stroke="none"
	d="
M214.945496,234.637329
	C217.362518,240.675476 219.920395,241.265594 224.834244,238.376602
	C227.159561,237.009460 230.321655,237.065567 233.379105,236.418777
	C232.121506,243.893890 227.131226,247.530075 219.671295,247.123276
	C212.611938,246.738327 207.647339,241.853348 207.048584,234.702988
	C206.398605,226.940796 210.565491,221.014130 217.721848,219.522156
	C225.134262,217.976791 231.013672,221.422318 233.540115,228.915543
	C230.912415,231.149490 228.421646,230.748657 225.473648,229.130051
	C223.266785,227.918350 219.882874,226.378403 218.245941,227.258682
	C216.412842,228.244431 215.957916,231.793045 214.945496,234.637329
z"/>
<path fill="#EFEEF4" opacity="1.000000" stroke="none"
	d="
M248.180267,235.993439
	C246.633041,237.135452 245.532410,238.276840 244.431763,239.418228
	C244.778854,239.839417 245.125931,240.260605 245.473007,240.681793
	C248.417068,240.681793 251.361130,240.681793 254.676147,240.681793
	C254.676147,242.872681 254.676147,244.724167 254.676147,246.813538
	C249.007629,246.813538 243.436569,246.813538 237.605713,246.813538
	C237.605713,237.827759 237.605713,229.060883 237.605713,219.862640
	C243.241516,219.862640 248.939682,219.862640 254.845032,219.862640
	C254.845032,221.672485 254.845032,223.441132 254.845032,224.783646
	C252.125748,227.757446 245.943375,222.580688 244.833160,229.955139
	C248.079407,229.955139 250.674042,229.955139 253.591827,229.955139
	C253.591827,232.072617 253.591827,233.779190 253.591827,235.992798
	C251.863525,235.992798 250.245193,235.992798 248.180267,235.993439
z"/>
<path fill="#EDECF3" opacity="1.000000" stroke="none"
	d="
M103.644844,225.407333
	C101.328407,225.511948 98.967453,225.381485 96.712105,225.808655
	C95.340736,226.068375 94.132385,227.188843 92.850807,227.922668
	C94.069801,228.718613 95.202568,229.747437 96.533775,230.240326
	C97.698799,230.671692 99.086853,230.500702 100.572845,230.610306
	C100.572845,232.466995 100.572845,234.062714 100.572845,235.974548
	C98.025063,236.139694 95.596893,236.297089 92.744415,236.481995
	C92.744415,239.841858 92.744415,243.109390 92.744415,246.706711
	C90.093552,246.706711 87.856583,246.706711 85.255661,246.706711
	C85.255661,237.991760 85.255661,229.102814 85.255661,219.363846
	C90.865913,219.363846 96.594330,219.363846 102.891609,219.675354
	C103.521927,221.793701 103.583382,223.600510 103.644844,225.407333
z"/>
<path fill="#A37FE1" opacity="1.000000" stroke="none"
	d="
M248.004761,190.916763
	C246.552307,191.054672 245.099869,191.192581 243.198761,191.373077
	C242.893875,197.540009 238.756546,198.126022 233.438232,197.033936
	C233.017242,195.571640 233.010864,194.536209 233.446075,193.422012
	C235.343033,192.535339 236.798416,191.727402 238.253815,190.919479
	C236.811890,190.284134 235.422699,189.364822 233.914795,189.084686
	C231.992706,188.727646 229.974640,188.887390 227.998444,188.429626
	C227.999847,186.980682 228.000732,185.926498 228.318939,184.789856
	C229.633789,184.457855 230.631348,184.208282 231.765015,183.607483
	C231.811447,182.520309 231.721725,181.784348 231.339203,180.813873
	C227.698944,180.428467 224.351486,180.277573 221.003174,179.705414
	C220.990448,178.162399 220.978577,177.040680 220.950150,175.526978
	C219.286545,174.661453 217.639481,174.187897 215.837708,173.375122
	C212.785080,172.685516 209.887146,172.335114 206.988937,171.746521
	C206.988647,171.508362 206.977310,171.032150 207.426605,171.026062
	C210.944763,170.612167 214.013657,170.204346 217.500931,169.719284
	C222.918060,168.681122 225.202362,171.606277 226.390076,176.441513
	C227.788925,174.924515 228.729614,173.904388 230.063354,172.926086
	C233.632309,174.743652 236.808228,176.519363 240.118820,178.370377
	C239.871277,178.946259 239.434540,179.962265 238.729355,181.021194
	C237.949554,181.522171 237.438187,181.980240 236.846710,182.843903
	C240.512146,184.546310 244.257706,185.843140 248.001740,187.517700
	C248.001740,188.902557 248.003250,189.909653 248.004761,190.916763
z"/>
<path fill="#9089DE" opacity="1.000000" stroke="none"
	d="
M147.778931,139.014542
	C147.020569,134.201828 146.409637,129.358261 145.413177,124.595367
	C145.117676,123.182961 143.883087,121.861046 142.827682,120.732536
	C138.924911,116.559387 140.573669,110.668312 146.600021,109.337234
	C146.996078,110.806816 147.002075,111.862579 146.684967,113.058838
	C146.193512,114.561623 146.025162,115.923889 146.018738,117.627182
	C148.797943,118.340233 151.415237,118.712265 154.127899,119.415161
	C156.711212,121.822586 159.199127,123.899132 161.525879,126.336746
	C160.984283,128.496643 160.603851,130.295456 160.007050,132.199707
	C159.934647,133.173645 160.078583,134.042130 160.354279,135.361191
	C160.397629,139.563812 160.309250,143.315887 160.004120,147.161819
	C159.192825,147.060471 158.417480,147.034317 158.042725,146.633560
	C157.339111,145.881134 156.867065,144.912140 156.214752,143.571106
	C156.107346,139.525116 156.232239,135.930939 155.984344,132.362671
	C155.890762,131.015671 154.935150,129.728546 154.372498,128.414139
	C153.482819,129.625122 152.593155,130.836090 151.380585,132.181000
	C149.964783,134.548141 148.871857,136.781342 147.778931,139.014542
z"/>
<path fill="#779DDE" opacity="1.000000" stroke="none"
	d="
M147.414429,172.640411
	C147.473160,168.050293 147.531906,163.460159 148.057495,158.184448
	C148.852356,156.957504 149.180359,156.416183 149.979523,155.808411
	C150.944016,157.196930 151.749344,158.627640 151.864700,160.111969
	C152.092865,163.048019 151.779083,166.027847 152.037064,168.958954
	C152.119644,169.897110 153.298141,170.738831 153.975204,171.624664
	C154.711502,170.785538 155.880737,170.042236 156.092224,169.086914
	C156.508224,167.207794 156.392197,165.210907 156.789032,163.135574
	C158.121216,163.372971 159.160629,163.737503 160.287933,164.478088
	C160.317963,165.876602 160.260101,166.899048 160.056259,168.030457
	C159.851334,168.242798 159.717224,168.398926 159.746368,168.440475
	C159.876877,168.626419 160.053909,168.779724 160.349915,169.278717
	C162.179642,172.735733 160.378357,178.591202 166.960419,178.225098
	C166.310226,179.862717 165.659088,181.169067 164.576385,182.536896
	C161.102768,182.496460 158.060699,182.394547 154.999603,181.900772
	C151.802719,179.112244 149.125641,176.288345 147.414429,172.640411
z"/>
<path fill="#F9F9FB" opacity="1.000000" stroke="none"
	d="
M114.780914,246.079575
	C112.470329,246.389313 110.159744,246.699066 107.352570,246.539139
	C107.097076,237.073380 107.338165,228.077286 107.579262,219.081207
	C109.728485,219.326340 111.877716,219.571472 114.300400,220.408295
	C114.642883,229.359833 114.711899,237.719711 114.780914,246.079575
z"/>
<path fill="#2C1F76" opacity="1.000000" stroke="none"
	d="
M156.496246,163.262726
	C156.392197,165.210907 156.508224,167.207794 156.092224,169.086914
	C155.880737,170.042236 154.711502,170.785538 153.975204,171.624664
	C153.298141,170.738831 152.119644,169.897110 152.037064,168.958954
	C151.779083,166.027847 152.092865,163.048019 151.864700,160.111969
	C151.749344,158.627640 150.944016,157.196930 149.839554,155.483109
	C148.808029,155.309219 148.387619,155.394180 147.967194,155.479141
	C147.970367,154.988632 147.973526,154.498108 148.316406,154.084198
	C148.934525,154.015900 149.212952,153.870972 149.519287,153.712646
	C149.547180,153.699265 149.593964,153.739761 149.961121,154.026779
	C150.807526,153.210846 151.680862,152.114975 151.700851,151.003738
	C151.814499,144.686890 151.724319,138.366348 151.703476,132.047073
	C152.593155,130.836090 153.482819,129.625122 154.372498,128.414139
	C154.935150,129.728546 155.890762,131.015671 155.984344,132.362671
	C156.232239,135.930939 156.107346,139.525116 156.151321,144.017273
	C156.279999,151.037949 156.388123,157.150345 156.496246,163.262726
z"/>
<path fill="#A37FE1" opacity="1.000000" stroke="none"
	d="
M147.008072,112.918335
	C147.002075,111.862579 146.996078,110.806816 146.987778,109.355103
	C147.494995,104.574577 148.361084,100.472351 144.179398,96.740921
	C141.163376,94.049660 143.118729,88.784485 147.533936,86.983109
	C148.054169,88.462807 148.158859,89.498550 148.072906,90.896042
	C146.991730,95.639839 150.053833,93.858727 152.120041,94.233078
	C152.586624,95.587112 152.896362,96.583130 152.900589,97.830086
	C152.341675,101.549698 152.088272,105.018356 151.790634,109.092522
	C157.829391,109.092522 162.916595,109.092522 168.002045,109.474457
	C168.001907,110.874939 168.003525,111.893486 167.540894,112.982979
	C160.387115,113.008736 153.697586,112.963539 147.008072,112.918335
z"/>
<path fill="#6CADE2" opacity="1.000000" stroke="none"
	d="
M147.113922,172.796448
	C149.125641,176.288345 151.802719,179.112244 154.594055,181.975555
	C152.562119,182.508194 150.853485,182.323486 149.290802,182.717529
	C147.983444,183.047195 146.846741,184.053558 145.634476,184.760254
	C146.807297,185.497055 147.944183,186.793106 149.159317,186.871155
	C153.752777,187.166229 158.371658,187.065964 163.044312,187.439484
	C163.402283,188.826187 163.696945,189.887039 163.991608,190.947906
	C158.380081,190.996750 152.758102,191.255630 147.162903,190.976761
	C145.288223,190.883316 142.323181,189.799774 141.894791,188.498032
	C141.097351,186.074829 141.188889,182.950409 142.032166,180.504654
	C142.977249,177.763611 145.165863,175.451324 147.113922,172.796448
z"/>
<path fill="#8E9FEA" opacity="1.000000" stroke="none"
	d="
M219.839142,197.205612
	C208.550919,197.455673 197.262695,197.705719 185.585052,197.596069
	C186.333069,196.603943 187.470490,195.971542 188.149918,195.593796
	C186.645340,194.980057 184.838058,194.242859 183.493744,193.444763
	C196.297272,193.426376 208.637833,193.468872 220.785400,193.827362
	C216.251923,194.581528 211.911423,195.019699 207.891602,195.425491
	C211.699020,195.992783 215.769089,196.599197 219.839142,197.205612
z"/>
<path fill="#7294D7" opacity="1.000000" stroke="none"
	d="
M183.030762,193.505646
	C184.838058,194.242859 186.645340,194.980057 188.149918,195.593796
	C187.470490,195.971542 186.333069,196.603943 185.120789,197.556580
	C181.420532,197.805527 177.733292,198.102325 174.195831,197.507874
	C172.423904,197.210114 169.908829,195.551407 169.517548,194.044144
	C168.740906,191.052582 166.998245,191.045135 164.393341,191.020630
	C163.696945,189.887039 163.402283,188.826187 163.360794,187.368958
	C164.546005,186.580093 165.478027,186.187607 166.859650,185.803528
	C167.859970,185.030457 168.410690,184.248962 169.111908,183.318481
	C169.669815,183.096893 170.077179,183.024307 170.343414,183.379211
	C171.763458,184.121078 173.324631,184.435425 174.906372,185.160812
	C174.957428,186.668518 174.987930,187.765198 174.664078,189.099792
	C173.211380,191.713715 173.600571,193.165680 176.578156,193.201050
	C178.729919,193.226608 180.879959,193.398834 183.030762,193.505646
z"/>
<path fill="#E5E4EE" opacity="1.000000" stroke="none"
	d="
M71.270630,236.398453
	C65.477013,236.655197 60.054546,236.655197 54.344852,236.655197
	C54.344852,234.474640 54.344852,232.598129 54.344852,230.448975
	C60.059307,230.448975 65.616127,230.448975 71.641777,230.448975
	C71.641777,232.378738 71.641777,234.260223 71.270630,236.398453
z"/>
<path fill="#B670CE" opacity="1.000000" stroke="none"
	d="
M264.223511,169.929504
	C266.050201,173.245377 268.474030,176.385300 269.518890,179.931534
	C270.390686,182.890244 269.646362,186.325150 269.165283,189.464325
	C267.986481,188.262741 267.260162,187.145981 266.525269,185.656342
	C265.656952,184.283905 264.797272,183.284363 263.775726,181.989792
	C263.049866,180.149628 262.485870,178.604492 261.802124,176.731308
	C257.703430,178.083405 256.580994,175.774368 257.345337,171.818604
	C258.562805,170.826538 259.423889,169.911163 260.616943,169.063553
	C262.040466,169.397385 263.131989,169.663437 264.223511,169.929504
z"/>
<path fill="#D95B6A" opacity="1.000000" stroke="none"
	d="
M252.360931,82.726089
	C256.281555,83.883430 260.395752,84.631760 264.046387,86.359581
	C266.065613,87.315269 268.011475,89.677567 268.725952,91.826248
	C269.648438,94.600594 268.628723,97.416878 264.644897,98.577621
	C263.734406,97.347504 263.376678,95.941666 263.349915,94.309181
	C262.867737,92.681030 262.385040,90.605896 261.175476,90.012550
	C258.295746,88.599930 255.072433,87.887718 251.823074,86.719986
	C251.404648,86.335205 251.113113,86.214951 250.766876,86.226196
	C250.750137,86.265755 250.664566,86.273293 250.749619,85.878098
	C251.343430,84.563965 251.852188,83.645027 252.360931,82.726089
z"/>
<path fill="#CA628F" opacity="1.000000" stroke="none"
	d="
M267.237793,121.533768
	C266.346161,123.786766 265.454529,126.039772 264.078796,128.611115
	C262.328400,128.714615 261.062134,128.499786 259.816284,128.281036
	C259.836761,128.277100 259.824768,128.247101 259.857056,127.866165
	C258.177002,125.707809 256.464600,123.930374 254.752228,122.152946
	C254.380966,122.456772 254.009705,122.760597 253.638458,123.064415
	C253.752396,121.296173 253.866333,119.527931 254.437103,117.695633
	C258.544312,117.639297 262.194672,117.647026 265.928009,118.057648
	C266.419891,119.484955 266.828827,120.509361 267.237793,121.533768
z"/>
<path fill="#CF5F82" opacity="1.000000" stroke="none"
	d="
M267.600952,121.415878
	C266.828827,120.509361 266.419891,119.484955 266.019653,117.658066
	C266.491943,114.330208 265.920258,112.749794 262.869171,113.073181
	C261.596985,113.208015 260.286926,112.985893 258.945190,112.597328
	C258.595947,111.205360 258.295593,110.142136 258.370087,108.976158
	C259.246979,107.252975 259.749054,105.632553 260.587341,104.027153
	C262.040314,104.732391 263.157166,105.422607 264.273987,106.112839
	C264.975250,107.040756 265.478943,108.397842 266.410065,108.826523
	C272.185760,111.485565 272.934692,117.022560 267.600952,121.415878
z"/>
<path fill="#C95977" opacity="1.000000" stroke="none"
	d="
M264.398987,105.744568
	C263.157166,105.422607 262.040314,104.732391 260.517029,103.608597
	C260.586670,99.587654 259.376953,97.342781 255.497452,96.740807
	C253.606918,96.447456 251.811844,95.538971 249.824966,94.723824
	C249.437469,94.319405 249.160919,94.169548 248.874390,94.155640
	C248.902069,94.222145 248.768829,94.276932 248.837677,93.867912
	C248.932404,92.371986 248.958267,91.285080 249.355515,90.227615
	C254.157578,91.683311 258.588257,93.109566 263.018921,94.535828
	C263.376678,95.941666 263.734406,97.347504 264.395142,98.854164
	C264.640106,101.095421 264.582031,103.235855 264.398987,105.744568
z"/>
<path fill="#AE73DB" opacity="1.000000" stroke="none"
	d="
M148.263550,90.534286
	C148.158859,89.498550 148.054169,88.462807 147.916992,86.904305
	C153.627045,84.514969 159.369598,82.648407 165.573212,81.067947
	C166.689468,82.246498 167.344650,83.138954 167.703568,84.240685
	C161.026062,86.478065 154.644791,88.506180 148.263550,90.534286
z"/>
<path fill="#B177E0" opacity="1.000000" stroke="none"
	d="
M266.533875,186.029221
	C267.260162,187.145981 267.986481,188.262741 268.834412,189.641052
	C264.267090,190.300797 259.581726,190.751877 254.887466,191.072098
	C252.912384,191.206818 250.918427,191.065033 248.468903,190.982849
	C248.003250,189.909653 248.001740,188.902557 248.465698,187.455872
	C254.798737,186.687271 260.666321,186.358246 266.533875,186.029221
z"/>
<path fill="#CF5F82" opacity="1.000000" stroke="none"
	d="
M219.997055,72.211617
	C225.092606,73.811211 230.188141,75.410805 235.705902,77.487198
	C236.417175,79.268471 236.706253,80.572960 236.622986,81.846893
	C230.804581,79.983978 225.358505,78.151611 219.932709,75.908638
	C219.967682,74.402557 219.982376,73.307091 219.997055,72.211617
z"/>
<path fill="#9089DE" opacity="1.000000" stroke="none"
	d="
M220.297775,197.344513
	C215.769089,196.599197 211.699020,195.992783 207.891602,195.425491
	C211.911423,195.019699 216.251923,194.581528 221.240036,193.738037
	C225.593277,193.388718 229.298874,193.444748 233.004486,193.500763
	C233.010864,194.536209 233.017242,195.571640 233.040009,196.912048
	C228.956390,197.305817 224.856400,197.394623 220.297775,197.344513
z"/>
<path fill="#CA628F" opacity="1.000000" stroke="none"
	d="
M219.665070,72.042114
	C219.982376,73.307091 219.967682,74.402557 219.545929,75.853081
	C214.136398,74.985420 209.133942,73.762711 203.987991,72.155457
	C203.511948,70.729759 203.179382,69.688599 202.846817,68.647446
	C208.342239,69.722504 213.837646,70.797562 219.665070,72.042114
z"/>
<path fill="#8E9FEA" opacity="1.000000" stroke="none"
	d="
M149.491394,153.726044
	C149.212952,153.870972 148.934525,154.015900 148.312439,153.838959
	C147.834564,148.982330 147.700363,144.447586 147.672546,139.463684
	C148.871857,136.781342 149.964783,134.548141 151.380585,132.181000
	C151.724319,138.366348 151.814499,144.686890 151.700851,151.003738
	C151.680862,152.114975 150.807526,153.210846 150.038513,153.652725
	C149.748718,152.159027 149.748718,151.326416 149.748718,150.493790
	C149.523483,150.509781 149.298248,150.525772 149.073013,150.541763
	C149.212479,151.603195 149.351929,152.664612 149.491394,153.726044
z"/>
<path fill="#C95977" opacity="1.000000" stroke="none"
	d="
M236.995316,81.877441
	C236.706253,80.572960 236.417175,79.268471 236.056488,77.637749
	C241.247421,78.971153 246.509949,80.630798 252.066711,82.508270
	C251.852188,83.645027 251.343430,84.563965 250.379120,85.825233
	C245.614136,84.737526 241.304733,83.307487 236.995316,81.877441
z"/>
<path fill="#C3649E" opacity="1.000000" stroke="none"
	d="
M259.795837,128.284958
	C261.062134,128.499786 262.328400,128.714615 263.910339,128.945206
	C264.314545,133.409882 264.403107,137.858780 263.858124,142.667938
	C262.246399,142.999634 261.268219,142.971085 260.245300,142.543213
	C260.065643,137.524261 259.930756,132.904602 259.795837,128.284958
z"/>
<path fill="#21196F" opacity="1.000000" stroke="none"
	d="
M107.213966,219.162048
	C107.338165,228.077286 107.097076,237.073380 106.936653,246.531662
	C106.344574,245.333847 105.251259,243.716537 105.077530,242.005844
	C104.545784,236.769836 104.367325,231.497955 103.848145,225.823669
	C103.583382,223.600510 103.521927,221.793701 103.303009,219.626160
	C104.379921,219.257950 105.614296,219.250427 107.213966,219.162048
z"/>
<path fill="#C065A5" opacity="1.000000" stroke="none"
	d="
M202.467438,68.742310
	C203.179382,69.688599 203.511948,70.729759 203.683807,72.310181
	C199.803085,73.957291 196.083084,75.065140 192.049133,76.010193
	C191.147171,74.882866 190.559174,73.918335 189.971161,72.953796
	C194.010132,71.581589 198.049103,70.209381 202.467438,68.742310
z"/>
<path fill="#B670CE" opacity="1.000000" stroke="none"
	d="
M167.999817,84.031410
	C167.344650,83.138954 166.689468,82.246498 165.966751,81.020828
	C169.964203,79.333572 174.029205,77.979538 178.515289,77.032059
	C178.994141,78.409409 179.051926,79.380188 178.856049,80.588242
	C175.068207,81.894142 171.534012,82.962776 167.999817,84.031410
z"/>
<path fill="#C06AB2" opacity="1.000000" stroke="none"
	d="
M260.290039,142.942535
	C261.268219,142.971085 262.246399,142.999634 263.714081,143.049957
	C264.257446,147.391876 264.311340,151.712051 264.038147,156.580795
	C262.569244,157.423355 261.427368,157.717331 260.208862,157.554077
	C260.184814,152.378723 260.237427,147.660614 260.290039,142.942535
z"/>
<path fill="#BD6BB9" opacity="1.000000" stroke="none"
	d="
M179.109711,80.350975
	C179.051926,79.380188 178.994141,78.409409 178.909256,76.949226
	C182.324478,75.307968 185.766830,74.156113 189.590164,72.979027
	C190.559174,73.918335 191.147171,74.882866 191.737549,76.226311
	C187.529831,77.853813 183.319763,79.102394 179.109711,80.350975
z"/>
<path fill="#BF70C6" opacity="1.000000" stroke="none"
	d="
M260.285522,158.011322
	C261.427368,157.717331 262.569244,157.423355 263.960052,157.036469
	C264.259186,160.968933 264.309357,164.994308 264.291504,169.474594
	C263.131989,169.663437 262.040466,169.397385 260.546631,168.610443
	C260.191376,164.730164 260.238434,161.370743 260.285522,158.011322
z"/>
<path fill="#3F3483" opacity="1.000000" stroke="none"
	d="
M68.975204,159.553802
	C68.434380,159.839035 67.376274,159.639297 67.381592,159.473694
	C67.569641,153.616074 67.857437,147.761627 68.563950,141.941925
	C68.982391,147.679672 68.968086,153.382202 68.975204,159.553802
z"/>
<path fill="#180B69" opacity="1.000000" stroke="none"
	d="
M115.073517,245.770401
	C114.711899,237.719711 114.642883,229.359833 114.631966,220.539337
	C115.122780,221.432007 115.937729,222.789124 115.924278,224.137970
	C115.853378,231.246872 115.573494,238.353683 115.073517,245.770401
z"/>
<path fill="#1E116D" opacity="1.000000" stroke="none"
	d="
M147.286682,243.975952
	C147.484695,244.610474 147.349747,245.024490 147.043335,245.720398
	C146.204117,246.084000 145.536362,246.165741 144.673386,246.158295
	C144.416504,244.171402 144.354858,242.273697 144.386871,240.075317
	C145.304932,241.101562 146.129333,242.428513 147.286682,243.975952
z"/>
<path fill="#8E9FEA" opacity="1.000000" stroke="none"
	d="
M147.845398,155.905365
	C148.387619,155.394180 148.808029,155.309219 149.368408,155.549561
	C149.180359,156.416183 148.852356,156.957504 148.162827,157.799026
	C147.775391,157.509995 147.749481,156.920792 147.845398,155.905365
z"/>
<path fill="#1E116D" opacity="1.000000" stroke="none"
	d="
M38.403000,81.203644
	C38.601719,81.296135 38.624928,81.464828 38.559322,81.873138
	C38.306545,81.928452 38.132381,81.751274 37.992157,81.550400
	C37.975533,81.526581 38.144539,81.373177 38.403000,81.203644
z"/>
<path fill="#1E116D" opacity="1.000000" stroke="none"
	d="
M67.632019,118.997208
	C67.391670,118.922592 67.331642,118.719406 67.344971,118.206963
	C67.549660,118.221352 67.680992,118.544998 67.632019,118.997208
z"/>
<path fill="#1E116D" opacity="1.000000" stroke="none"
	d="
M67.741714,104.987030
	C67.656097,104.663643 67.903648,104.141846 68.629036,103.632607
	C68.762878,104.026314 68.418877,104.407471 67.741714,104.987030
z"/>
<path fill="#3F3483" opacity="1.000000" stroke="none"
	d="
M159.787552,232.069092
	C160.277603,230.833054 160.647476,229.974365 161.382095,228.268875
	C162.446014,231.482193 163.230011,233.850082 164.125092,236.553421
	C162.171967,236.553421 160.743118,236.553421 158.663376,236.553421
	C159.029510,235.055695 159.348450,233.751053 159.787552,232.069092
z"/>
<path fill="#2E2178" opacity="1.000000" stroke="none"
	d="
M229.670319,172.884247
	C228.729614,173.904388 227.788925,174.924515 226.390076,176.441513
	C225.202362,171.606277 222.918060,168.681122 217.088638,169.635681
	C209.138931,169.681931 202.019928,169.734558 194.516815,169.712372
	C193.091629,169.702225 192.050537,169.766876 190.625504,169.838272
	C188.553833,171.769745 186.866135,173.694458 185.181595,175.615555
	C182.481491,173.011215 182.481491,173.011215 181.954391,162.534988
	C181.979996,156.048157 181.937286,150.025284 181.962860,143.539642
	C182.000183,138.048630 181.969238,133.020370 182.140808,127.685760
	C183.751083,123.935036 185.414719,120.836990 190.475067,121.784256
	C196.286591,121.803528 201.636948,121.750877 207.437332,121.772522
	C212.586655,121.800850 217.285934,121.754898 222.397125,121.783081
	C229.082489,121.139519 228.499863,126.551208 230.037796,130.470871
	C230.021469,134.953888 230.066788,138.978027 230.045929,143.458786
	C230.020752,147.610062 230.061783,151.304733 230.034302,155.462967
	C229.867294,161.579117 229.768799,167.231689 229.670319,172.884247
M219.201065,159.283813
	C223.395111,156.286499 225.010788,152.036865 225.422302,146.432220
	C224.943634,133.523193 215.906937,125.167984 203.062500,126.545410
	C196.618195,127.618103 191.697144,130.775711 188.400391,137.394363
	C185.005020,144.998276 185.973633,152.184052 191.331024,158.371399
	C196.221863,164.019913 202.549042,166.475754 210.880844,164.275696
	C213.472595,162.747452 216.064346,161.219193 219.201065,159.283813
z"/>
<path fill="#B177E0" opacity="1.000000" stroke="none"
	d="
M230.063354,172.926102
	C229.768799,167.231689 229.867294,161.579117 230.413971,155.463058
	C231.875061,155.000198 232.887970,155.000824 233.970215,155.436554
	C234.339478,160.596420 234.639420,165.321167 234.848831,170.380890
	C235.907822,170.499634 237.057327,170.283386 238.328705,169.705841
	C238.558121,164.592575 238.665680,159.840607 239.023071,155.204987
	C240.418594,155.888031 241.564270,156.454742 242.780273,157.481964
	C242.874557,161.936386 242.376205,166.025360 243.080566,169.895447
	C243.692337,173.256897 242.884018,178.487442 249.462006,178.025604
	C251.226013,179.002197 252.619888,179.982178 254.005493,181.281342
	C253.993561,181.813385 253.989929,182.026215 253.609161,182.336334
	C251.149796,182.564453 249.067535,182.695282 246.593719,182.738373
	C245.139389,182.709381 244.076599,182.768127 242.612427,182.751266
	C241.141113,182.531479 240.071198,182.387268 238.997711,182.032486
	C239.001648,181.540726 239.002869,181.259521 238.997803,180.978287
	C239.434540,179.962265 239.871277,178.946259 240.118820,178.370377
	C236.808228,176.519363 233.632309,174.743652 230.063354,172.926102
z"/>
<path fill="#2B1F75" opacity="1.000000" stroke="none"
	d="
M233.446060,193.422012
	C229.298874,193.444748 225.593277,193.388718 221.433029,193.422028
	C208.637833,193.468872 196.297272,193.426376 183.493744,193.444763
	C180.879959,193.398834 178.729919,193.226608 176.578156,193.201050
	C173.600571,193.165680 173.211380,191.713715 175.125824,189.157318
	C180.629578,188.926056 185.317245,188.875153 190.468964,188.889099
	C196.956512,188.907303 202.980057,188.860687 209.467285,188.881271
	C215.953308,188.907104 221.975616,188.865738 227.997940,188.824356
	C229.974640,188.887390 231.992706,188.727646 233.914795,189.084686
	C235.422699,189.364822 236.811890,190.284134 238.253815,190.919479
	C236.798416,191.727402 235.343033,192.535339 233.446060,193.422012
z"/>
<path fill="#21196F" opacity="1.000000" stroke="none"
	d="
M246.985275,182.826111
	C249.067535,182.695282 251.149796,182.564453 254.041016,182.417603
	C256.613159,182.344162 258.376312,182.286728 260.510834,182.328888
	C261.900635,182.380600 262.919128,182.332703 263.937592,182.284821
	C264.797272,183.284363 265.656952,184.283905 266.525269,185.656342
	C260.666321,186.358246 254.798737,186.687271 248.467224,187.078125
	C244.257706,185.843140 240.512146,184.546310 237.197357,182.872696
	C238.085846,182.411621 238.543579,182.327347 239.001297,182.243073
	C240.071198,182.387268 241.141113,182.531479 242.690552,183.095673
	C244.889786,185.764175 246.142731,185.430450 246.985275,182.826111
M264.536896,184.507431
	C264.536896,184.507431 264.483093,184.530777 264.536896,184.507431
z"/>
<path fill="#23166D" opacity="1.000000" stroke="none"
	d="
M231.628891,183.958740
	C230.631348,184.208282 229.633789,184.457855 227.856079,184.710449
	C221.046890,184.772003 215.017883,184.830536 208.527924,184.805038
	C202.041519,184.772598 196.016083,184.824188 189.559570,184.792206
	C186.219543,184.480667 183.310593,184.252701 180.737183,183.816727
	C181.869843,183.410751 182.666519,183.042175 183.464127,183.040100
	C198.251755,183.001694 213.039597,182.983643 227.827057,183.044556
	C229.095566,183.049774 230.361664,183.640182 231.628891,183.958740
z"/>
<path fill="#23166D" opacity="1.000000" stroke="none"
	d="
M221.004044,180.126678
	C224.351486,180.277573 227.698944,180.428467 230.992920,180.999115
	C230.138596,181.607422 229.338150,181.958435 228.536819,181.960449
	C213.749374,181.997696 198.961716,182.017990 184.174500,181.953232
	C182.917252,181.947739 181.662735,181.316101 180.361511,180.845428
	C180.316071,180.715530 180.194046,180.468872 180.642075,180.431671
	C185.062439,180.300247 189.034790,180.206024 193.463623,180.194580
	C197.947113,180.221451 201.974106,180.165543 206.460999,180.194366
	C211.615280,180.228317 216.309662,180.177490 221.004044,180.126678
z"/>
<path fill="#9B8BE5" opacity="1.000000" stroke="none"
	d="
M194.900909,169.787170
	C202.019928,169.734558 209.138931,169.681931 216.670242,169.712906
	C214.013657,170.204346 210.944763,170.612167 207.116180,171.021240
	C205.651276,171.100601 204.946091,171.178680 204.240906,171.256775
	C204.241638,171.499420 204.242386,171.742050 204.243118,171.984695
	C205.158493,171.984695 206.073853,171.984695 206.989227,171.984695
	C209.887146,172.335114 212.785080,172.685516 215.378265,173.445023
	C209.057739,173.809723 203.041962,173.765305 197.001877,173.392578
	C196.285355,171.971924 195.593140,170.879547 194.900909,169.787170
z"/>
<path fill="#9B8BE5" opacity="1.000000" stroke="none"
	d="
M208.988861,184.889069
	C215.017883,184.830536 221.046890,184.772003 227.538773,184.792877
	C228.000732,185.926498 227.999847,186.980682 227.998444,188.429626
	C221.975616,188.865738 215.953308,188.907104 209.465836,188.489197
	C208.996750,186.982956 208.992813,185.936020 208.988861,184.889069
z"/>
<path fill="#2E2178" opacity="1.000000" stroke="none"
	d="
M197.026184,173.720886
	C203.041962,173.765305 209.057739,173.809723 215.532959,173.784225
	C217.639481,174.187897 219.286545,174.661453 220.487610,175.562103
	C215.361877,176.059113 210.682159,176.129044 205.543091,176.132965
	C201.056610,176.111099 197.029480,176.155273 192.669128,176.112457
	C191.894897,175.361542 191.453903,174.697601 191.442017,173.999329
	C193.589478,173.883606 195.307831,173.802246 197.026184,173.720886
z"/>
<path fill="#9B8BE5" opacity="1.000000" stroke="none"
	d="
M206.002441,176.198975
	C210.682159,176.129044 215.361877,176.059113 220.504150,175.954071
	C220.978577,177.040680 220.990448,178.162399 221.003174,179.705414
	C216.309662,180.177490 211.615280,180.228317 206.460724,179.802811
	C206.001175,178.283981 206.001816,177.241470 206.002441,176.198975
z"/>
<path fill="#2E2178" opacity="1.000000" stroke="none"
	d="
M180.406952,180.975327
	C181.662735,181.316101 182.917252,181.947739 184.174500,181.953232
	C198.961716,182.017990 213.749374,181.997696 228.536819,181.960449
	C229.338150,181.958435 230.138596,181.607422 231.285736,181.233627
	C231.721725,181.784348 231.811447,182.520309 231.765015,183.607498
	C230.361664,183.640182 229.095566,183.049774 227.827057,183.044556
	C213.039597,182.983643 198.251755,183.001694 183.464127,183.040100
	C182.666519,183.042175 181.869843,183.410751 180.588745,183.449295
	C180.205475,182.518356 180.306213,181.746841 180.406952,180.975327
z"/>
<path fill="#B57DE8" opacity="1.000000" stroke="none"
	d="
M238.997711,182.032471
	C238.543579,182.327347 238.085846,182.411621 237.277466,182.467102
	C237.438187,181.980240 237.949554,181.522171 238.729370,181.021194
	C239.002869,181.259521 239.001648,181.540726 238.997711,182.032471
z"/>
<path fill="#9089DE" opacity="1.000000" stroke="none"
	d="
M206.988937,171.746521
	C206.073853,171.984695 205.158493,171.984695 204.243118,171.984695
	C204.242386,171.742050 204.241638,171.499420 204.240906,171.256775
	C204.946091,171.178680 205.651276,171.100601 206.666885,171.027328
	C206.977310,171.032150 206.988647,171.508362 206.988937,171.746521
z"/>
<path fill="#2C1F76" opacity="1.000000" stroke="none"
	d="
M258.994110,112.926086
	C260.286926,112.985893 261.596985,113.208015 262.869171,113.073181
	C265.920258,112.749794 266.491943,114.330208 265.936707,117.255165
	C262.194672,117.647026 258.544312,117.639297 254.029114,117.632782
	C250.112350,117.669746 247.060394,117.705490 243.575500,117.626282
	C239.427124,117.598885 235.711716,117.686455 231.546494,117.705887
	C228.067535,117.688278 225.038391,117.738815 221.548050,117.724808
	C216.757065,117.709351 212.427261,117.758446 207.629547,117.731293
	C202.129608,117.705208 197.097595,117.755363 191.639374,117.731049
	C189.774872,117.707062 188.336578,117.757553 186.464935,117.720917
	C183.387772,117.691566 180.743927,117.749336 177.772614,117.693436
	C176.299835,117.650139 175.154572,117.720535 173.589386,117.665649
	C171.432159,117.626442 169.694870,117.712524 167.728668,117.740479
	C167.499756,117.682343 167.048615,117.822227 166.717926,117.692886
	C165.678558,117.528343 164.969864,117.493149 163.788879,117.328278
	C157.496643,117.227791 151.676712,117.256981 145.856796,117.286163
	C146.025162,115.923889 146.193512,114.561623 146.684967,113.058838
	C153.697586,112.963539 160.387115,113.008736 168.004974,113.048630
	C175.287643,112.996620 181.641998,112.949913 188.459229,112.972549
	C193.943817,112.996513 198.965515,112.951149 204.449280,112.978851
	C209.608780,113.008026 214.306183,112.964127 219.465424,112.985535
	C224.616730,113.008781 229.306168,112.966705 234.455261,112.990662
	C238.941254,113.014091 242.967590,112.971504 247.451508,112.990524
	C251.604111,113.010117 255.299103,112.968102 258.994110,112.926086
z"/>
<path fill="#2B1F75" opacity="1.000000" stroke="none"
	d="
M166.959442,177.893845
	C160.378357,178.591202 162.179642,172.735733 160.392410,169.022400
	C160.266830,168.261948 160.234543,168.091721 160.202240,167.921494
	C160.260101,166.899048 160.317963,165.876602 160.366211,164.063782
	C160.311371,157.871582 160.266129,152.469772 160.220871,147.067947
	C160.309250,143.315887 160.397629,139.563812 160.455170,135.015930
	C160.357361,133.511490 160.290390,132.802887 160.223419,132.094284
	C160.603851,130.295456 160.984283,128.496643 161.744171,126.014664
	C163.055374,124.212502 163.987106,123.093491 164.918854,121.974487
	C165.720215,122.988052 166.902847,123.887154 167.248260,125.037621
	C168.127563,127.966339 168.632645,131.007416 169.214203,134.465057
	C169.192917,139.956131 169.244904,144.985657 169.221863,150.476776
	C169.193558,156.956924 169.240295,162.975479 169.211365,169.383408
	C168.410309,172.479797 167.684875,175.186813 166.959442,177.893845
z"/>
<path fill="#A182E3" opacity="1.000000" stroke="none"
	d="
M169.287506,134.003525
	C168.632645,131.007416 168.127563,127.966339 167.248260,125.037621
	C166.902847,123.887154 165.720215,122.988052 164.918854,121.974487
	C163.987106,123.093491 163.055374,124.212502 161.905334,125.653595
	C159.199127,123.899132 156.711212,121.822586 154.568619,119.379326
	C158.029694,118.494392 161.145432,117.976166 164.261185,117.457947
	C164.969864,117.493149 165.678558,117.528343 166.764557,117.818748
	C167.413788,117.982178 167.685684,117.890396 167.957565,117.798615
	C169.694870,117.712524 171.432159,117.626442 173.590271,117.866890
	C173.997864,118.461914 173.990509,118.730576 173.815079,119.251289
	C175.481064,120.306633 177.320969,121.110069 179.215958,121.937569
	C178.434372,126.592651 178.434372,126.592651 181.938293,127.992111
	C181.969238,133.020370 182.000183,138.048630 181.596298,143.539032
	C179.939270,144.004654 178.717087,144.008102 177.631866,143.497864
	C177.764603,141.216919 177.760361,139.449646 177.770599,137.590210
	C177.799210,137.217270 177.789139,136.938416 177.789017,136.110748
	C177.696106,133.734177 177.568985,131.908356 177.329773,129.665009
	C176.078598,129.477448 174.939529,129.707413 173.673462,130.288422
	C173.437424,132.417328 173.328384,134.195206 172.924042,135.852371
	C171.515015,135.155609 170.401245,134.579559 169.287506,134.003525
z"/>
<path fill="#8E9FEA" opacity="1.000000" stroke="none"
	d="
M160.004120,147.161819
	C160.266129,152.469772 160.311371,157.871582 160.278320,163.687714
	C159.160629,163.737503 158.121216,163.372971 156.789032,163.135574
	C156.388123,157.150345 156.279999,151.037949 156.235291,144.479401
	C156.867065,144.912140 157.339111,145.881134 158.042725,146.633560
	C158.417480,147.034317 159.192825,147.060471 160.004120,147.161819
z"/>
<path fill="#704AA0" opacity="1.000000" stroke="none"
	d="
M163.788879,117.328278
	C161.145432,117.976166 158.029694,118.494392 154.473236,119.048454
	C151.415237,118.712265 148.797943,118.340233 146.018738,117.627182
	C151.676712,117.256981 157.496643,117.227791 163.788879,117.328278
z"/>
<path fill="#8E9FEA" opacity="1.000000" stroke="none"
	d="
M160.007050,132.199707
	C160.290390,132.802887 160.357361,133.511490 160.323425,134.565369
	C160.078583,134.042130 159.934647,133.173645 160.007050,132.199707
z"/>
<path fill="#809BE1" opacity="1.000000" stroke="none"
	d="
M166.960419,178.225098
	C167.684875,175.186813 168.410309,172.479797 169.503113,169.396545
	C170.980331,169.225693 172.090179,169.431061 173.344696,169.751862
	C173.489365,169.867279 173.803543,170.063034 173.863037,170.403900
	C174.282471,171.007706 174.642441,171.270676 175.012131,171.888489
	C176.745926,174.985199 178.469986,177.727036 180.194046,180.468872
	C180.194046,180.468872 180.316071,180.715530 180.361511,180.845428
	C180.306213,181.746841 180.205475,182.518356 180.253174,183.657303
	C183.310593,184.252701 186.219543,184.480667 189.560898,185.187668
	C189.997162,186.719208 190.001038,187.771729 190.004913,188.824249
	C185.317245,188.875153 180.629578,188.926056 175.480164,188.919403
	C174.987930,187.765198 174.957428,186.668518 175.057922,184.793304
	C175.146454,183.495926 175.103989,182.977097 175.009247,182.309906
	C174.651581,182.199860 174.346191,182.238190 173.604706,182.402161
	C172.273941,182.669113 171.379242,182.810410 170.484558,182.951721
	C170.077179,183.024307 169.669815,183.096893 168.851242,183.090210
	C167.774536,183.024292 167.109039,183.037628 166.221008,182.916534
	C165.668320,182.679871 165.338120,182.577652 165.007935,182.475418
	C165.659088,181.169067 166.310226,179.862717 166.960419,178.225098
z"/>
<path fill="#23166D" opacity="1.000000" stroke="none"
	d="
M164.576385,182.536896
	C165.338120,182.577652 165.668320,182.679871 166.152496,183.605255
	C166.341034,184.883987 166.375549,185.339554 166.410065,185.795120
	C165.478027,186.187607 164.546005,186.580093 163.297485,187.043121
	C158.371658,187.065964 153.752777,187.166229 149.159317,186.871155
	C147.944183,186.793106 146.807297,185.497055 145.634476,184.760254
	C146.846741,184.053558 147.983444,183.047195 149.290802,182.717529
	C150.853485,182.323486 152.562119,182.508194 154.613083,182.367432
	C158.060699,182.394547 161.102768,182.496460 164.576385,182.536896
M147.539703,184.507645
	C147.539703,184.507645 147.485504,184.531342 147.539703,184.507645
z"/>
<path fill="#8E9FEA" opacity="1.000000" stroke="none"
	d="
M160.056274,168.030457
	C160.234543,168.091721 160.266830,168.261948 160.256638,168.688492
	C160.053909,168.779724 159.876877,168.626419 159.746368,168.440475
	C159.717224,168.398926 159.851334,168.242798 160.056274,168.030457
z"/>
<path fill="#779DDE" opacity="1.000000" stroke="none"
	d="
M149.519287,153.712646
	C149.351929,152.664612 149.212479,151.603195 149.073013,150.541763
	C149.298248,150.525772 149.523483,150.509781 149.748718,150.493790
	C149.748718,151.326416 149.748718,152.159027 149.671341,153.365707
	C149.593964,153.739761 149.547180,153.699265 149.519287,153.712646
z"/>
<path fill="#2E2077" opacity="1.000000" stroke="none"
	d="
M249.973557,94.908928
	C251.811844,95.538971 253.606918,96.447456 255.497452,96.740807
	C259.376953,97.342781 260.586670,99.587654 260.180878,103.593582
	C259.749054,105.632553 259.246979,107.252975 257.913422,108.913322
	C253.386230,108.994476 249.690536,109.035706 245.535828,109.013733
	C241.050385,108.994072 237.023911,109.037605 232.534821,109.020615
	C227.382858,109.002403 222.693497,109.044716 217.559753,109.024788
	C214.128616,108.962547 211.141861,108.962547 208.155121,108.962547
	C208.092819,108.585342 208.030533,108.208130 207.968231,107.830925
	C208.656693,107.241997 209.345154,106.653069 210.382233,106.019783
	C215.937729,102.072830 215.976349,98.759979 211.218460,93.868164
	C215.657455,92.986786 215.005676,90.472511 213.463776,87.975471
	C211.143906,84.218575 205.507660,83.153732 201.490845,85.679306
	C196.021317,89.786285 195.970093,93.055191 200.846832,97.329796
	C199.603958,98.622711 197.390884,99.891327 197.559464,100.496391
	C198.084183,102.379692 199.395798,104.099777 200.625977,105.712471
	C201.579239,106.962112 202.868301,107.955574 203.542847,109.016998
	C198.049332,109.015694 193.021042,109.060303 187.529144,109.036331
	C180.711624,109.009331 174.357697,109.050926 168.003784,109.092522
	C162.916595,109.092522 157.829391,109.092522 151.790634,109.092522
	C152.088272,105.018356 152.341675,101.549698 153.289886,97.742897
	C159.010513,95.653679 164.036346,93.902596 169.452896,92.117470
	C172.910599,91.104965 175.977554,90.126511 179.431580,89.121628
	C183.885483,87.735931 187.952332,86.376663 192.401215,85.000069
	C196.229248,83.818291 199.675247,82.653839 203.523987,81.418678
	C208.950668,82.498817 213.974609,83.649666 219.340027,84.963715
	C224.787750,86.710571 229.894028,88.294228 235.334656,90.040344
	C240.035629,91.560852 244.402222,92.918892 248.768829,94.276932
	C248.768829,94.276932 248.902069,94.222145 248.954041,94.408043
	C249.328522,94.698936 249.651031,94.803932 249.973557,94.908928
M235.076157,100.132027
	C231.316406,100.112274 227.544556,99.910744 223.802704,100.159912
	C222.249405,100.263344 220.760208,101.329727 219.241867,101.958199
	C220.503189,102.918106 221.764511,103.878006 223.529236,105.384422
	C225.383759,105.206573 227.238297,105.028732 229.923828,104.690483
	C232.635895,104.536331 235.347961,104.382179 238.977798,104.350792
	C243.468674,104.357330 247.964676,104.481079 252.446686,104.285088
	C253.519897,104.238159 254.546555,103.126877 255.594620,102.505104
	C254.548691,101.702309 253.524490,100.242592 252.453186,100.207161
	C246.975571,100.025963 241.485779,100.212173 235.076157,100.132027
M177.154099,100.216240
	C171.531494,100.186852 165.904099,100.024315 160.289886,100.227142
	C158.981705,100.274406 157.718384,101.563492 156.434418,102.281197
	C157.722534,102.977432 158.999298,104.248856 160.300629,104.274521
	C167.570221,104.417885 174.845734,104.259964 183.001450,104.373177
	C185.317184,104.377075 187.661469,104.593315 189.935608,104.287659
	C190.943527,104.152168 191.809616,102.961296 192.740082,102.249496
	C191.780716,101.535423 190.846619,100.251373 189.857529,100.207504
	C185.904968,100.032188 181.935287,100.242348 177.154099,100.216240
M182.303940,91.450577
	C181.619934,92.387520 180.935928,93.324463 180.251923,94.261406
	C181.019424,94.801422 181.757156,95.748093 182.559875,95.806808
	C185.190704,95.999268 187.863586,96.041832 190.479950,95.763161
	C191.325958,95.673050 192.047470,94.413986 192.825912,93.689629
	C192.073669,92.942863 191.391220,91.659241 190.555984,91.550629
	C188.112808,91.232933 185.608749,91.383606 182.303940,91.450577
M228.091721,95.955826
	C230.235962,95.671814 233.685791,94.717056 230.988541,92.613823
	C228.687500,90.819572 224.169052,91.780663 220.630615,91.767639
	C220.160675,91.765907 219.685425,93.207474 219.212631,93.980621
	C221.553772,94.641342 223.892334,95.311584 226.239212,95.951241
	C226.546692,96.035057 226.896896,95.962120 228.091721,95.955826
z"/>
<path fill="#322177" opacity="1.000000" stroke="none"
	d="
M178.856049,80.588242
	C183.319763,79.102394 187.529831,77.853813 192.051483,76.389107
	C196.083084,75.065140 199.803085,73.957291 203.827271,72.694717
	C209.133942,73.762711 214.136398,74.985420 219.525650,76.263687
	C225.358505,78.151611 230.804581,79.983978 236.622986,81.846893
	C241.304733,83.307487 245.614136,84.737526 250.294067,86.220428
	C250.664566,86.273293 250.750137,86.265755 250.887283,86.454735
	C251.345596,86.726662 251.666763,86.809608 251.987930,86.892563
	C255.072433,87.887718 258.295746,88.599930 261.175476,90.012550
	C262.385040,90.605896 262.867737,92.681030 263.349915,94.309181
	C258.588257,93.109566 254.157578,91.683311 249.015152,90.066177
	C243.876083,88.538170 239.448761,87.201035 234.740021,85.649628
	C229.337738,83.854256 224.216843,82.273170 218.799225,80.492432
	C212.988342,79.138260 207.953491,74.964195 201.463043,77.743172
	C197.728943,78.962486 194.362106,80.084961 190.627594,81.246460
	C186.097946,82.684433 181.935989,84.083382 177.403534,85.562515
	C174.321243,86.531822 171.609482,87.420929 168.494385,88.391205
	C162.715118,90.273270 157.339157,92.074158 151.963196,93.875046
	C150.053833,93.858727 146.991730,95.639839 148.072891,90.896042
	C154.644791,88.506180 161.026062,86.478065 167.703568,84.240685
	C171.534012,82.962776 175.068207,81.894142 178.856049,80.588242
z"/>
<path fill="#AE79E3" opacity="1.000000" stroke="none"
	d="
M168.002045,109.474457
	C174.357697,109.050926 180.711624,109.009331 187.530457,109.416107
	C187.995682,110.877388 187.996002,111.890305 187.996338,112.903214
	C181.641998,112.949913 175.287643,112.996620 168.469223,112.977676
	C168.003525,111.893486 168.001907,110.874939 168.002045,109.474457
z"/>
<path fill="#AE73DB" opacity="1.000000" stroke="none"
	d="
M152.120041,94.233078
	C157.339157,92.074158 162.715118,90.273270 168.514160,88.874283
	C168.978912,90.234627 169.020538,91.193069 169.062164,92.151512
	C164.036346,93.902596 159.010513,95.653679 153.595398,97.491951
	C152.896362,96.583130 152.586624,95.587112 152.120041,94.233078
z"/>
<path fill="#23166D" opacity="1.000000" stroke="none"
	d="
M175.061523,182.458282
	C175.103989,182.977097 175.146454,183.495926 175.037369,184.382263
	C173.324631,184.435425 171.763458,184.121078 170.343414,183.379211
	C171.379242,182.810410 172.273941,182.669113 173.851166,182.495529
	C174.709641,182.461594 174.885574,182.459946 175.061523,182.458282
z"/>
<path fill="#2C1F76" opacity="1.000000" stroke="none"
	d="
M166.859650,185.803528
	C166.375549,185.339554 166.341034,184.883987 166.375015,183.739685
	C167.109039,183.037628 167.774536,183.024292 168.700714,183.239227
	C168.410690,184.248962 167.859970,185.030457 166.859650,185.803528
z"/>
<path fill="#2C1F76" opacity="1.000000" stroke="none"
	d="
M260.208862,157.554077
	C260.238434,161.370743 260.191376,164.730164 260.214630,168.542694
	C259.423889,169.911163 258.562805,170.826538 257.136047,171.692413
	C256.308533,171.447525 256.057922,171.238617 255.853058,170.552338
	C255.834183,166.063156 255.780823,162.037827 255.800278,157.549393
	C255.823959,151.728409 255.774826,146.370514 255.795792,140.570953
	C255.812317,136.462402 255.758743,132.795547 255.945145,128.935272
	C257.398346,128.576950 258.611542,128.412033 259.824768,128.247101
	C259.824768,128.247101 259.836761,128.277100 259.816315,128.281036
	C259.930756,132.904602 260.065643,137.524261 260.245300,142.543213
	C260.237427,147.660614 260.184814,152.378723 260.208862,157.554077
z"/>
<path fill="#AE73DB" opacity="1.000000" stroke="none"
	d="
M255.818588,171.016205
	C256.057922,171.238617 256.308533,171.447525 256.779663,171.769089
	C256.580994,175.774368 257.703430,178.083405 261.802124,176.731308
	C262.485870,178.604492 263.049866,180.149628 263.775726,181.989777
	C262.919128,182.332703 261.900635,182.380600 260.224182,182.046112
	C257.715363,181.429886 255.864578,181.196014 254.013779,180.962158
	C252.619888,179.982178 251.226013,179.002197 249.522354,177.663239
	C250.064743,173.834885 250.916901,170.365494 252.035980,167.140381
	C253.474777,168.595184 254.646683,169.805695 255.818588,171.016205
z"/>
<path fill="#C95977" opacity="1.000000" stroke="none"
	d="
M251.823074,86.719986
	C251.666763,86.809608 251.345596,86.726662 250.904022,86.415176
	C251.113113,86.214951 251.404648,86.335205 251.823074,86.719986
z"/>
<path fill="#C3649E" opacity="1.000000" stroke="none"
	d="
M259.857056,127.866165
	C258.611542,128.412033 257.398346,128.576950 255.653412,128.997803
	C253.968353,128.859558 252.815002,128.465347 251.447662,127.806190
	C249.016647,125.901581 250.100723,120.502563 244.990509,121.778107
	C244.630539,120.216530 244.319489,118.978889 244.008453,117.741241
	C247.060394,117.705490 250.112350,117.669746 253.572281,117.696838
	C253.866333,119.527931 253.752396,121.296173 253.638458,123.064415
	C254.009705,122.760597 254.380966,122.456772 254.752228,122.152946
	C256.464600,123.930374 258.177002,125.707809 259.857056,127.866165
z"/>
<path fill="#CA628F" opacity="1.000000" stroke="none"
	d="
M245.994812,109.076935
	C249.690536,109.035706 253.386230,108.994476 257.538605,109.016083
	C258.295593,110.142136 258.595947,111.205360 258.945190,112.597336
	C255.299103,112.968102 251.604111,113.010117 247.402252,112.661446
	C246.595215,111.206154 246.295013,110.141548 245.994812,109.076935
z"/>
<path fill="#CF5F82" opacity="1.000000" stroke="none"
	d="
M235.021439,85.863907
	C239.448761,87.201035 243.876083,88.538170 248.643768,90.036743
	C248.958267,91.285080 248.932404,92.371986 248.837677,93.867920
	C244.402222,92.918892 240.035629,91.560852 235.334290,89.639633
	C235.006866,88.005608 235.014160,86.934761 235.021439,85.863907
z"/>
<path fill="#CF5F82" opacity="1.000000" stroke="none"
	d="
M249.824966,94.723816
	C249.651031,94.803932 249.328522,94.698936 248.926361,94.341537
	C249.160919,94.169548 249.437469,94.319405 249.824966,94.723816
z"/>
<path fill="#9D83E1" opacity="1.000000" stroke="none"
	d="
M210.122009,164.353134
	C202.549042,166.475754 196.221863,164.019913 191.331024,158.371399
	C185.973633,152.184052 185.005020,144.998276 188.860870,137.386322
	C190.236481,137.925293 191.151627,138.472305 192.007629,139.425644
	C188.306839,152.802292 196.213470,161.930908 209.886978,160.979828
	C209.990814,162.425034 210.056412,163.389084 210.122009,164.353134
z"/>
<path fill="#8B97E4" opacity="1.000000" stroke="none"
	d="
M180.642075,180.431671
	C178.469986,177.727036 176.745926,174.985199 175.423798,171.855469
	C176.373520,170.957306 176.921295,170.447006 177.601883,169.518188
	C177.647446,167.065369 177.560226,165.031067 177.840820,162.996811
	C179.434433,162.997543 180.660263,162.998245 181.886078,162.998947
	C182.481491,173.011215 182.481491,173.011215 185.181595,175.615555
	C186.866135,173.694458 188.553833,171.769745 190.625610,170.259491
	C191.010757,171.793869 191.011826,172.913773 191.012894,174.033676
	C191.453903,174.697601 191.894897,175.361542 192.669083,176.503265
	C193.003891,178.024628 193.005508,179.068222 193.007126,180.111816
	C189.034790,180.206024 185.062439,180.300247 180.642075,180.431671
z"/>
<path fill="#BD6BB9" opacity="1.000000" stroke="none"
	d="
M222.009247,117.789352
	C225.038391,117.738815 228.067535,117.688278 231.547821,118.130180
	C233.001343,120.191582 233.732620,122.061111 235.065689,123.263382
	C237.425995,125.392090 240.152145,127.115135 242.795441,129.434143
	C242.804733,132.641663 242.743790,135.422989 242.278076,138.097641
	C240.848938,135.967316 239.824585,133.943680 238.715118,131.672516
	C238.485413,130.929764 238.340851,130.434570 238.152115,129.608368
	C236.841370,129.511383 235.574783,129.745377 234.209991,130.237320
	C234.044083,130.666336 233.976364,130.837418 233.583069,130.956207
	C232.204803,130.606613 231.152115,130.309296 230.099442,130.011993
	C228.499863,126.551208 229.082489,121.139519 222.400269,121.392525
	C221.997437,119.881676 222.003342,118.835510 222.009247,117.789352
z"/>
<path fill="#B16FD1" opacity="1.000000" stroke="none"
	d="
M203.858948,126.495041
	C215.906937,125.167984 224.943634,133.523193 224.972076,146.603760
	C223.437302,146.522110 222.352737,146.268921 221.190109,145.622589
	C219.803909,136.280334 216.119049,132.432617 206.847504,130.190765
	C205.757156,128.764694 204.808060,127.629868 203.858948,126.495041
z"/>
<path fill="#978EE5" opacity="1.000000" stroke="none"
	d="
M181.954391,162.534988
	C180.660263,162.998245 179.434433,162.997543 177.962372,162.345245
	C177.678284,161.253479 177.640411,160.813309 177.580322,160.384766
	C177.558090,160.396408 177.608017,160.310730 177.713043,159.804794
	C177.710327,154.203094 177.602615,149.107330 177.494888,144.011566
	C178.717087,144.008102 179.939270,144.004654 181.528015,144.001801
	C181.937286,150.025284 181.979996,156.048157 181.954391,162.534988
z"/>
<path fill="#AE79E3" opacity="1.000000" stroke="none"
	d="
M182.140808,127.685760
	C178.434372,126.592651 178.434372,126.592651 179.215958,121.937569
	C177.320969,121.110069 175.481064,120.306633 174.191818,119.250404
	C175.861694,118.600784 176.980896,118.203941 178.100098,117.807114
	C180.743927,117.749336 183.387772,117.691566 186.721802,117.989914
	C188.609573,118.570702 189.807159,118.795372 190.884201,119.283005
	C190.513763,120.268082 190.263840,120.990204 190.013916,121.712326
	C185.414719,120.836990 183.751083,123.935036 182.140808,127.685760
z"/>
<path fill="#AE79E3" opacity="1.000000" stroke="none"
	d="
M203.460724,126.520218
	C204.808060,127.629868 205.757156,128.764694 206.513336,130.211975
	C199.861664,130.490997 195.436325,133.869431 192.066757,139.019333
	C191.151627,138.472305 190.236481,137.925293 189.123169,137.126389
	C191.697144,130.775711 196.618195,127.618103 203.460724,126.520218
z"/>
<path fill="#BA74D6" opacity="1.000000" stroke="none"
	d="
M190.475082,121.784256
	C190.263840,120.990204 190.513763,120.268082 191.102524,119.119980
	C191.649445,118.397850 191.857529,118.101692 192.065613,117.805527
	C197.097595,117.755363 202.129608,117.705208 207.400635,117.980469
	C206.518570,118.672310 205.397491,119.038727 204.390198,119.367950
	C205.260757,120.149063 206.124039,120.923645 206.987305,121.698227
	C201.636948,121.750877 196.286591,121.803528 190.475082,121.784256
z"/>
<path fill="#BF70C6" opacity="1.000000" stroke="none"
	d="
M207.437332,121.772514
	C206.124039,120.923645 205.260757,120.149063 204.390198,119.367950
	C205.397491,119.038727 206.518570,118.672310 207.868561,118.056717
	C212.427261,117.758446 216.757065,117.709351 221.548050,117.724808
	C222.003342,118.835510 221.997437,119.881676 221.988373,121.318390
	C217.285934,121.754898 212.586655,121.800850 207.437332,121.772514
z"/>
<path fill="#B177E0" opacity="1.000000" stroke="none"
	d="
M221.268188,146.015732
	C222.352737,146.268921 223.437302,146.522110 224.829163,146.919418
	C225.010788,152.036865 223.395111,156.286499 218.611084,159.141998
	C217.619827,158.183640 217.218567,157.367081 216.987381,156.265991
	C218.527710,152.659561 219.897949,149.337646 221.268188,146.015732
z"/>
<path fill="#BF70C6" opacity="1.000000" stroke="none"
	d="
M230.037796,130.470871
	C231.152115,130.309296 232.204803,130.606613 233.645508,131.412720
	C233.986130,135.616028 233.938705,139.310532 233.513245,143.003845
	C232.127518,143.002487 231.119812,143.002319 230.112122,143.002167
	C230.066788,138.978027 230.021469,134.953888 230.037796,130.470871
z"/>
<path fill="#BA74D6" opacity="1.000000" stroke="none"
	d="
M230.045914,143.458786
	C231.119812,143.002319 232.127518,143.002487 233.580933,143.459991
	C233.984726,147.612030 233.942795,151.306732 233.900879,155.001450
	C232.887970,155.000824 231.875061,155.000198 230.482483,154.999481
	C230.061783,151.304733 230.020752,147.610062 230.045914,143.458786
z"/>
<path fill="#A37FE1" opacity="1.000000" stroke="none"
	d="
M216.817291,156.550522
	C217.218567,157.367081 217.619827,158.183640 218.338593,159.345566
	C216.064346,161.219193 213.472595,162.747452 210.501419,164.314423
	C210.056412,163.389084 209.990814,162.425034 210.171783,160.823120
	C212.551346,158.973679 214.684311,157.762100 216.817291,156.550522
z"/>
<path fill="#9089DE" opacity="1.000000" stroke="none"
	d="
M191.442017,173.999329
	C191.011826,172.913773 191.010757,171.793869 191.009583,170.252747
	C192.050537,169.766876 193.091629,169.702225 194.516815,169.712372
	C195.593140,170.879547 196.285355,171.971924 197.001877,173.392578
	C195.307831,173.802246 193.589478,173.883606 191.442017,173.999329
z"/>
<path fill="#2B1F75" opacity="1.000000" stroke="none"
	d="
M242.682861,138.204315
	C242.743790,135.422989 242.804733,132.641663 242.899048,129.077347
	C243.634735,126.230247 244.337067,124.166145 245.039413,122.102043
	C250.100723,120.502563 249.016647,125.901581 251.416168,128.202789
	C251.652573,132.245712 251.706482,135.627060 251.693817,139.471619
	C251.674637,145.257645 251.722000,150.580444 251.702469,156.365356
	C251.680069,160.183670 251.724579,163.539871 251.769073,166.896088
	C250.916901,170.365494 250.064743,173.834885 249.152222,177.666656
	C242.884018,178.487442 243.692337,173.256897 243.080566,169.895447
	C242.376205,166.025360 242.874557,161.936386 242.855652,157.029465
	C242.801453,150.145737 242.742157,144.175034 242.682861,138.204315
z"/>
<path fill="#2C1F76" opacity="1.000000" stroke="none"
	d="
M233.970215,155.436554
	C233.942795,151.306732 233.984726,147.612030 233.958969,143.461182
	C233.938705,139.310532 233.986130,135.616028 233.971100,131.465012
	C233.976364,130.837418 234.044083,130.666336 234.598328,130.240768
	C236.122009,129.970642 237.159149,129.955002 238.196289,129.939362
	C238.340851,130.434570 238.485413,130.929764 238.614212,132.076111
	C238.656708,140.181046 238.714981,147.634827 238.773239,155.088623
	C238.665680,159.840607 238.558121,164.592575 237.787994,169.664337
	C236.396759,170.004730 235.668045,170.025330 234.939362,170.045929
	C234.639420,165.321167 234.339478,160.596420 233.970215,155.436554
z"/>
<path fill="#BF70C6" opacity="1.000000" stroke="none"
	d="
M239.023071,155.204987
	C238.714981,147.634827 238.656708,140.181046 238.699341,132.323639
	C239.824585,133.943680 240.848938,135.967316 242.278076,138.097641
	C242.742157,144.175034 242.801453,150.145737 242.785355,156.568939
	C241.564270,156.454742 240.418594,155.888031 239.023071,155.204987
z"/>
<path fill="#2C1F76" opacity="1.000000" stroke="none"
	d="
M246.593719,182.738373
	C246.142731,185.430450 244.889786,185.764175 243.091965,183.171265
	C244.076599,182.768127 245.139389,182.709381 246.593719,182.738373
z"/>
<path fill="#B57DE8" opacity="1.000000" stroke="none"
	d="
M254.005493,181.281342
	C255.864578,181.196014 257.715363,181.429886 259.852844,181.946503
	C258.376312,182.286728 256.613159,182.344162 254.418121,182.320312
	C253.989929,182.026215 253.993561,181.813385 254.005493,181.281342
z"/>
<path fill="#21196F" opacity="1.000000" stroke="none"
	d="
M234.848816,170.380890
	C235.668045,170.025330 236.396759,170.004730 237.666153,170.025635
	C237.057327,170.283386 235.907822,170.499634 234.848816,170.380890
z"/>
<path fill="#8B97E4" opacity="1.000000" stroke="none"
	d="
M190.468948,188.889099
	C190.001038,187.771729 189.997162,186.719208 189.991959,185.271240
	C196.016083,184.824188 202.041519,184.772598 208.527924,184.805023
	C208.992813,185.936020 208.996750,186.982956 209.002136,188.421997
	C202.980057,188.860687 196.956512,188.907303 190.468948,188.889099
z"/>
<path fill="#2C1F76" opacity="1.000000" stroke="none"
	d="
M264.510010,184.519104
	C264.483093,184.530777 264.536896,184.507431 264.510010,184.519104
z"/>
<path fill="#978EE5" opacity="1.000000" stroke="none"
	d="
M193.463623,180.194580
	C193.005508,179.068222 193.003891,178.024628 193.002319,176.590240
	C197.029480,176.155273 201.056610,176.111099 205.543091,176.132950
	C206.001816,177.241470 206.001175,178.283981 206.000824,179.718048
	C201.974106,180.165543 197.947113,180.221451 193.463623,180.194580
z"/>
<path fill="#BB6CBE" opacity="1.000000" stroke="none"
	d="
M210.033615,106.064140
	C209.345154,106.653069 208.656693,107.241997 207.968231,107.830925
	C208.030533,108.208130 208.092819,108.585342 208.155121,108.962547
	C211.141861,108.962547 214.128616,108.962547 217.610001,109.352158
	C218.404282,110.801247 218.703934,111.860733 219.003586,112.920219
	C214.306183,112.964127 209.608780,113.008026 204.453064,112.594681
	C203.999191,111.112587 204.003632,110.087746 204.008087,109.062912
	C202.868301,107.955574 201.579239,106.962112 200.625977,105.712471
	C199.395798,104.099777 198.084183,102.379692 197.559464,100.496391
	C197.390884,99.891327 199.603958,98.622711 201.185623,97.417938
	C203.973236,100.581276 209.813263,100.669746 210.033615,106.064140
z"/>
<path fill="#C368AA" opacity="1.000000" stroke="none"
	d="
M244.990509,121.778107
	C244.337067,124.166145 243.634735,126.230247 242.828796,128.651154
	C240.152145,127.115135 237.425995,125.392090 235.065689,123.263382
	C233.732620,122.061111 233.001343,120.191582 231.997650,118.198326
	C235.711716,117.686455 239.427124,117.598885 243.575500,117.626282
	C244.319489,118.978889 244.630539,120.216530 244.990509,121.778107
z"/>
<path fill="#BA74D6" opacity="1.000000" stroke="none"
	d="
M203.542847,109.016998
	C204.003632,110.087746 203.999191,111.112587 203.990967,112.521599
	C198.965515,112.951149 193.943817,112.996513 188.459229,112.972549
	C187.996002,111.890305 187.995682,110.877388 187.994049,109.484695
	C193.021042,109.060303 198.049332,109.015694 203.542847,109.016998
z"/>
<path fill="#C368AA" opacity="1.000000" stroke="none"
	d="
M219.465424,112.985535
	C218.703934,111.860733 218.404282,110.801247 218.054382,109.414398
	C222.693497,109.044716 227.382858,109.002403 232.586563,109.348671
	C233.399155,110.799713 233.697388,111.862167 233.995621,112.924637
	C229.306168,112.966705 224.616730,113.008781 219.465424,112.985535
z"/>
<path fill="#C3649E" opacity="1.000000" stroke="none"
	d="
M234.455261,112.990654
	C233.697388,111.862167 233.399155,110.799713 233.049194,109.409195
	C237.023911,109.037605 241.050385,108.994072 245.535828,109.013733
	C246.295013,110.141548 246.595215,111.206154 246.944672,112.599838
	C242.967590,112.971504 238.941254,113.014091 234.455261,112.990654
z"/>
<path fill="#B57DE8" opacity="1.000000" stroke="none"
	d="
M177.772614,117.693428
	C176.980896,118.203941 175.861694,118.600784 174.365753,118.998505
	C173.990509,118.730576 173.997864,118.461914 174.010178,117.992172
	C175.154572,117.720535 176.299835,117.650139 177.772614,117.693428
z"/>
<path fill="#B57DE8" opacity="1.000000" stroke="none"
	d="
M191.639389,117.731056
	C191.857529,118.101692 191.649445,118.397850 191.223053,118.857025
	C189.807159,118.795372 188.609573,118.570702 187.155151,118.077042
	C188.336578,117.757553 189.774872,117.707062 191.639389,117.731056
z"/>
<path fill="#B57DE8" opacity="1.000000" stroke="none"
	d="
M167.728668,117.740479
	C167.685684,117.890396 167.413788,117.982178 167.095245,117.948090
	C167.048615,117.822227 167.499756,117.682343 167.728668,117.740479
z"/>
<path fill="#8B97E4" opacity="1.000000" stroke="none"
	d="
M173.200012,169.636444
	C172.090179,169.431061 170.980331,169.225693 169.578766,169.007187
	C169.240295,162.975479 169.193558,156.956924 169.507172,150.558319
	C171.075150,150.785065 172.282822,151.391830 173.484161,152.406555
	C173.558502,154.170929 173.639175,155.527313 173.674759,157.308243
	C174.050217,158.655807 174.470764,159.578827 174.667969,160.521530
	C174.317123,160.958160 174.189590,161.375137 173.947495,162.109406
	C173.621964,164.829956 173.410980,167.233185 173.200012,169.636444
z"/>
<path fill="#978EE5" opacity="1.000000" stroke="none"
	d="
M173.490479,151.998596
	C172.282822,151.391830 171.075150,150.785065 169.582184,150.096741
	C169.244904,144.985657 169.192917,139.956131 169.214203,134.465057
	C170.401245,134.579559 171.515015,135.155609 173.037048,136.170319
	C173.498154,136.827698 173.550980,137.046417 173.546814,137.394928
	C173.462952,137.832306 173.473099,138.138306 173.502960,138.940582
	C173.487259,143.625137 173.488861,147.811874 173.490479,151.998596
z"/>
<path fill="#3F3483" opacity="1.000000" stroke="none"
	d="
M173.484161,152.406555
	C173.488861,147.811874 173.487259,143.625137 174.049149,138.975815
	C175.660461,138.236267 176.708282,137.959320 177.756119,137.682373
	C177.760361,139.449646 177.764603,141.216919 177.631866,143.497879
	C177.602615,149.107330 177.710327,154.203094 177.420364,159.519135
	C176.821747,159.557297 176.620819,159.375198 176.246429,158.857681
	C175.288589,157.976074 174.504211,157.429901 173.719849,156.883713
	C173.639175,155.527313 173.558502,154.170929 173.484161,152.406555
z"/>
<path fill="#2C1F76" opacity="1.000000" stroke="none"
	d="
M173.603790,137.265121
	C173.550980,137.046417 173.498154,136.827698 173.332336,136.291046
	C173.328384,134.195206 173.437424,132.417328 174.125702,130.310150
	C175.617249,130.014755 176.529556,130.048630 177.441864,130.082520
	C177.568985,131.908356 177.696106,133.734177 177.291046,135.729523
	C176.407776,135.685394 176.056656,135.471786 175.708130,135.109192
	C175.710709,134.960205 175.403305,134.866058 175.403305,134.866058
	C175.403305,134.866058 175.325821,135.264450 175.012314,135.573425
	C174.333801,136.343292 173.968796,136.804199 173.603790,137.265121
z"/>
<path fill="#5F56AC" opacity="1.000000" stroke="none"
	d="
M175.705536,135.258163
	C176.056656,135.471786 176.407776,135.685394 177.256866,136.280243
	C177.789139,136.938416 177.799210,137.217270 177.770599,137.590210
	C176.708282,137.959320 175.660461,138.236267 174.066452,138.477966
	C173.473099,138.138306 173.462952,137.832306 173.546814,137.394928
	C173.968796,136.804199 174.333801,136.343292 175.105103,135.579300
	C175.511398,135.276215 175.705536,135.258163 175.705536,135.258163
z"/>
<path fill="#23166D" opacity="1.000000" stroke="none"
	d="
M177.329773,129.665009
	C176.529556,130.048630 175.617249,130.014755 174.252686,129.959137
	C174.939529,129.707413 176.078598,129.477448 177.329773,129.665009
z"/>
<path fill="#2C1F76" opacity="1.000000" stroke="none"
	d="
M173.344696,169.751862
	C173.410980,167.233185 173.621964,164.829956 174.632355,162.176819
	C176.155365,161.408981 176.878952,160.891052 177.602539,160.373123
	C177.640411,160.813309 177.678284,161.253479 177.594574,162.345215
	C177.560226,165.031067 177.647446,167.065369 177.137985,169.530991
	C175.628708,169.995895 174.716125,170.029465 173.803543,170.063049
	C173.803543,170.063034 173.489365,169.867279 173.344696,169.751862
z"/>
<path fill="#23166D" opacity="1.000000" stroke="none"
	d="
M173.863037,170.403900
	C174.716125,170.029465 175.628708,169.995895 177.005188,169.949524
	C176.921295,170.447006 176.373520,170.957306 175.414062,171.500610
	C174.642441,171.270676 174.282471,171.007706 173.863037,170.403900
z"/>
<path fill="#6CADE2" opacity="1.000000" stroke="none"
	d="
M175.009247,182.309906
	C174.885574,182.459946 174.709641,182.461594 174.287231,182.369888
	C174.346191,182.238190 174.651581,182.199860 175.009247,182.309906
z"/>
<path fill="#2C1F76" opacity="1.000000" stroke="none"
	d="
M147.512604,184.519501
	C147.485504,184.531342 147.539703,184.507645 147.512604,184.519501
z"/>
<path fill="#C06AB2" opacity="1.000000" stroke="none"
	d="
M210.382233,106.019783
	C209.813263,100.669746 203.973236,100.581276 201.305023,97.090057
	C195.970093,93.055191 196.021317,89.786285 201.652405,86.014496
	C205.065445,88.819038 207.968292,91.382195 210.871124,93.945343
	C215.976349,98.759979 215.937729,102.072830 210.382233,106.019783
z"/>
<path fill="#B57DE8" opacity="1.000000" stroke="none"
	d="
M182.119232,104.205002
	C174.845734,104.259964 167.570221,104.417885 160.300629,104.274521
	C158.999298,104.248856 157.722534,102.977432 156.434418,102.281204
	C157.718384,101.563492 158.981705,100.274406 160.289886,100.227142
	C165.904099,100.024315 171.531494,100.186852 177.610001,100.653976
	C179.417007,102.129471 180.768127,103.167236 182.119232,104.205002
z"/>
<path fill="#C3649E" opacity="1.000000" stroke="none"
	d="
M238.060028,104.228027
	C235.347961,104.382179 232.635895,104.536331 229.075439,104.708366
	C226.493317,104.763474 224.759567,104.800697 223.025833,104.837921
	C221.764511,103.878006 220.503189,102.918106 219.241867,101.958206
	C220.760208,101.329727 222.249405,100.263344 223.802704,100.159912
	C227.544556,99.910744 231.316406,100.112274 235.602188,100.511490
	C236.772156,102.003311 237.416092,103.115669 238.060028,104.228027
z"/>
<path fill="#C065A5" opacity="1.000000" stroke="none"
	d="
M211.218460,93.868164
	C207.968292,91.382195 205.065445,88.819038 202.001068,85.920685
	C205.507660,83.153732 211.143906,84.218575 213.463776,87.975471
	C215.005676,90.472511 215.657455,92.986786 211.218460,93.868164
z"/>
<path fill="#CA628F" opacity="1.000000" stroke="none"
	d="
M238.518921,104.289413
	C237.416092,103.115669 236.772156,102.003311 236.064240,100.580429
	C241.485779,100.212173 246.975571,100.025963 252.453186,100.207161
	C253.524490,100.242592 254.548691,101.702309 255.594620,102.505104
	C254.546555,103.126877 253.519897,104.238159 252.446686,104.285088
	C247.964676,104.481079 243.468674,104.357330 238.518921,104.289413
z"/>
<path fill="#C3649E" opacity="1.000000" stroke="none"
	d="
M201.830322,77.646332
	C207.953491,74.964195 212.988342,79.138260 218.773575,80.904274
	C219.029282,82.610687 219.013916,83.705605 218.998550,84.800514
	C213.974609,83.649666 208.950668,82.498817 203.458405,81.012115
	C202.603516,79.666283 202.216919,78.656311 201.830322,77.646332
z"/>
<path fill="#CA628F" opacity="1.000000" stroke="none"
	d="
M219.340027,84.963715
	C219.013916,83.705605 219.029282,82.610687 219.070312,81.103928
	C224.216843,82.273170 229.337738,83.854256 234.740021,85.649628
	C235.014160,86.934761 235.006866,88.005608 234.999939,89.477173
	C229.894028,88.294228 224.787750,86.710571 219.340027,84.963715
z"/>
<path fill="#AD68C0" opacity="1.000000" stroke="none"
	d="
M182.716248,91.400658
	C185.608749,91.383606 188.112808,91.232933 190.555984,91.550629
	C191.391220,91.659241 192.073669,92.942863 192.825928,93.689636
	C192.047470,94.413986 191.325958,95.673050 190.479950,95.763161
	C187.863586,96.041832 185.190704,95.999268 182.559875,95.806808
	C181.757156,95.748093 181.019424,94.801422 180.251923,94.261406
	C180.935928,93.324463 181.619934,92.387520 182.716248,91.400658
z"/>
<path fill="#BB5E96" opacity="1.000000" stroke="none"
	d="
M227.659515,95.958801
	C226.896896,95.962120 226.546692,96.035057 226.239212,95.951241
	C223.892334,95.311584 221.553772,94.641342 219.212631,93.980621
	C219.685425,93.207474 220.160675,91.765907 220.630615,91.767639
	C224.169052,91.780663 228.687500,90.819572 230.988541,92.613823
	C233.685791,94.717056 230.235962,95.671814 227.659515,95.958801
z"/>
<path fill="#BB6CBE" opacity="1.000000" stroke="none"
	d="
M177.774033,85.482330
	C181.935989,84.083382 186.097946,82.684433 190.640930,81.578537
	C191.354370,82.920189 191.686768,83.968796 192.019165,85.017395
	C187.952332,86.376663 183.885483,87.735931 179.367020,88.739120
	C178.534943,87.416138 178.154495,86.449234 177.774033,85.482330
z"/>
<path fill="#B16FD1" opacity="1.000000" stroke="none"
	d="
M182.560333,104.289093
	C180.768127,103.167236 179.417007,102.129471 178.018921,100.700790
	C181.935287,100.242348 185.904968,100.032188 189.857529,100.207504
	C190.846619,100.251373 191.780716,101.535423 192.740082,102.249496
	C191.809616,102.961296 190.943527,104.152168 189.935608,104.287659
	C187.661469,104.593315 185.317184,104.377075 182.560333,104.289093
z"/>
<path fill="#C065A5" opacity="1.000000" stroke="none"
	d="
M192.401199,85.000076
	C191.686768,83.968796 191.354370,82.920189 191.008621,81.539513
	C194.362106,80.084961 197.728943,78.962486 201.463043,77.743172
	C202.216919,78.656311 202.603516,79.666283 203.055664,81.082825
	C199.675247,82.653839 196.229248,83.818291 192.401199,85.000076
z"/>
<path fill="#B16FD1" opacity="1.000000" stroke="none"
	d="
M177.403534,85.562523
	C178.154495,86.449234 178.534943,87.416138 178.979950,88.765549
	C175.977554,90.126511 172.910599,91.104965 169.452896,92.117470
	C169.020538,91.193069 168.978912,90.234627 168.917480,88.793106
	C171.609482,87.420929 174.321243,86.531822 177.403534,85.562523
z"/>
<path fill="#21196F" opacity="1.000000" stroke="none"
	d="
M223.277527,105.111176
	C224.759567,104.800697 226.493317,104.763474 228.659943,104.788574
	C227.238297,105.028732 225.383759,105.206573 223.277527,105.111176
z"/>
<path fill="#BD6BB9" opacity="1.000000" stroke="none"
	d="
M251.769348,155.903259
	C251.722000,150.580444 251.674637,145.257645 251.975830,139.645752
	C253.458145,139.908676 254.591919,140.460648 255.725693,141.012634
	C255.774826,146.370514 255.823959,151.728409 255.470978,157.528137
	C253.969009,157.281097 252.869186,156.592178 251.769348,155.903259
z"/>
<path fill="#B670CE" opacity="1.000000" stroke="none"
	d="
M251.702454,156.365356
	C252.869186,156.592178 253.969009,157.281097 255.398163,157.991241
	C255.780823,162.037827 255.834183,166.063156 255.853058,170.552338
	C254.646683,169.805695 253.474777,168.595184 252.035980,167.140381
	C251.724579,163.539871 251.680069,160.183670 251.702454,156.365356
z"/>
<path fill="#C368AA" opacity="1.000000" stroke="none"
	d="
M255.795792,140.570953
	C254.591919,140.460648 253.458145,139.908676 252.042374,139.182556
	C251.706482,135.627060 251.652573,132.245712 251.630157,128.467758
	C252.815002,128.465347 253.968353,128.859558 255.413422,129.191223
	C255.758743,132.795547 255.812317,136.462402 255.795792,140.570953
z"/>
<path fill="#2E2178" opacity="1.000000" stroke="none"
	d="
M216.987366,156.265991
	C214.684311,157.762100 212.551346,158.973679 210.133545,160.341949
	C196.213470,161.930908 188.306839,152.802292 192.007629,139.425644
	C195.436325,133.869431 199.861664,130.490997 206.654572,130.503189
	C216.119049,132.432617 219.803909,136.280334 221.190125,145.622589
	C219.897949,149.337646 218.527710,152.659561 216.987366,156.265991
M211.740753,155.039383
	C215.633438,150.983673 215.589905,148.513138 212.810928,145.687531
	C213.265366,142.549469 214.540695,139.484055 213.671265,138.647415
	C211.265427,136.332260 207.952103,133.585480 205.021896,133.612915
	C202.555908,133.636017 199.514999,136.942947 197.939804,139.532867
	C197.177216,140.786713 199.169998,143.739410 199.964767,145.904800
	C200.238419,146.650406 200.662170,147.340912 200.277084,148.039169
	C196.762009,149.578003 196.548721,152.611816 199.960129,155.059326
	C201.894730,156.447296 204.103790,157.452744 206.059326,158.557098
	C207.879944,157.467438 209.534332,156.477249 211.740753,155.039383
z"/>
<path fill="#21196F" opacity="1.000000" stroke="none"
	d="
M238.152115,129.608368
	C237.159149,129.955002 236.122009,129.970642 234.696533,129.982834
	C235.574783,129.745377 236.841370,129.511383 238.152115,129.608368
z"/>
<path fill="#5F56AC" opacity="1.000000" stroke="none"
	d="
M177.580322,160.384766
	C176.878952,160.891052 176.155365,161.408981 174.746918,161.859497
	C174.189590,161.375137 174.317123,160.958160 174.971313,160.367706
	C175.805283,159.860504 176.112595,159.526810 176.419907,159.193100
	C176.620819,159.375198 176.821747,159.557297 177.315338,160.025055
	C177.608017,160.310730 177.558090,160.396408 177.580322,160.384766
z"/>
<path fill="#2C1F76" opacity="1.000000" stroke="none"
	d="
M176.246429,158.857681
	C176.112595,159.526810 175.805283,159.860504 175.194641,160.348038
	C174.470764,159.578827 174.050217,158.655807 173.674759,157.308243
	C174.504211,157.429901 175.288589,157.976074 176.246429,158.857681
z"/>
<path fill="#3F3483" opacity="1.000000" stroke="none"
	d="
M175.708130,135.109192
	C175.705536,135.258163 175.511398,135.276215 175.418610,135.270325
	C175.325821,135.264450 175.403305,134.866058 175.403305,134.866058
	C175.403305,134.866058 175.710709,134.960205 175.708130,135.109192
z"/>
<path fill="#AE79E3" opacity="1.000000" stroke="none"
	d="
M201.017365,148.056595
	C200.662170,147.340912 200.238419,146.650406 199.964767,145.904800
	C199.169998,143.739410 197.177216,140.786713 197.939804,139.532867
	C199.514999,136.942947 202.555908,133.636017 205.021896,133.612915
	C207.952103,133.585480 211.265427,136.332260 213.671265,138.647415
	C214.540695,139.484055 213.265366,142.549469 212.810928,145.687531
	C215.589905,148.513138 215.633438,150.983673 211.290924,154.901031
	C209.074051,151.694611 208.146301,147.485458 202.878845,148.699829
	C202.150909,148.254929 201.551956,148.111206 200.962311,147.994690
	C200.971603,148.021866 201.017365,148.056595 201.017365,148.056595
z"/>
<path fill="#A37FE1" opacity="1.000000" stroke="none"
	d="
M203.007812,149.001022
	C208.146301,147.485458 209.074051,151.694611 211.014923,155.124878
	C209.534332,156.477249 207.879944,157.467438 206.059326,158.557098
	C204.103790,157.452744 201.894730,156.447296 199.960129,155.059326
	C196.548721,152.611816 196.762009,149.578003 200.647217,148.047882
	C201.017365,148.056595 200.971603,148.021866 201.070282,148.312454
	C201.781906,148.735703 202.394852,148.868362 203.007812,149.001022
z"/>
<path fill="#2E2178" opacity="1.000000" stroke="none"
	d="
M202.878845,148.699829
	C202.394852,148.868362 201.781906,148.735703 201.060974,148.285278
	C201.551956,148.111206 202.150909,148.254929 202.878845,148.699829
z"/>
</svg>
