<svg width="70" height="70" viewBox="0 0 70 70" fill="none" xmlns="http://www.w3.org/2000/svg">
<path d="M63.9333 19.3083C63.6374 18.5956 63.071 18.0293 62.3583 17.7333C62.0077 17.5839 61.6311 17.5046 61.25 17.5H46.6667C45.8931 17.5 45.1512 17.8073 44.6043 18.3543C44.0573 18.9013 43.75 19.6431 43.75 20.4167C43.75 21.1902 44.0573 21.9321 44.6043 22.4791C45.1512 23.026 45.8931 23.3333 46.6667 23.3333H54.2208L37.9167 39.6375L28.3208 30.0125C28.0497 29.7391 27.7271 29.5221 27.3717 29.3741C27.0162 29.226 26.635 29.1498 26.25 29.1498C25.865 29.1498 25.4837 29.226 25.1283 29.3741C24.7729 29.5221 24.4503 29.7391 24.1792 30.0125L6.67915 47.5125C6.40578 47.7836 6.18879 48.1062 6.04072 48.4617C5.89264 48.8171 5.81641 49.1983 5.81641 49.5833C5.81641 49.9684 5.89264 50.3496 6.04072 50.705C6.18879 51.0604 6.40578 51.383 6.67915 51.6542C6.95029 51.9275 7.27288 52.1445 7.6283 52.2926C7.98373 52.4407 8.36495 52.5169 8.74998 52.5169C9.13502 52.5169 9.51624 52.4407 9.87167 52.2926C10.2271 52.1445 10.5497 51.9275 10.8208 51.6542L26.25 36.1958L35.8458 45.8208C36.117 46.0942 36.4395 46.3112 36.795 46.4593C37.1504 46.6073 37.5316 46.6836 37.9167 46.6836C38.3017 46.6836 38.6829 46.6073 39.0383 46.4593C39.3938 46.3112 39.7163 46.0942 39.9875 45.8208L58.3333 27.4458V35C58.3333 35.7736 58.6406 36.5154 59.1876 37.0624C59.7346 37.6094 60.4764 37.9167 61.25 37.9167C62.0235 37.9167 62.7654 37.6094 63.3124 37.0624C63.8594 36.5154 64.1667 35.7736 64.1667 35V20.4167C64.162 20.0355 64.0828 19.659 63.9333 19.3083V19.3083Z" fill="#F8F8F8"/>
</svg>
