<svg width="70" height="70" viewBox="0 0 70 70" fill="none" xmlns="http://www.w3.org/2000/svg">
<path d="M24.5 31.5C24.5 29.6435 25.2375 27.863 26.5503 26.5503C27.863 25.2375 29.6435 24.5 31.5 24.5C33.3565 24.5 35.137 25.2375 36.4497 26.5503C37.7625 27.863 38.5 29.6435 38.5 31.5C38.5 33.3565 37.7625 35.137 36.4497 36.4497C35.137 37.7625 33.3565 38.5 31.5 38.5C29.6435 38.5 27.863 37.7625 26.5503 36.4497C25.2375 35.137 24.5 33.3565 24.5 31.5ZM31.5 28C30.5717 28 29.6815 28.3687 29.0251 29.0251C28.3687 29.6815 28 30.5717 28 31.5C28 32.4283 28.3687 33.3185 29.0251 33.9749C29.6815 34.6313 30.5717 35 31.5 35C32.4283 35 33.3185 34.6313 33.9749 33.9749C34.6313 33.3185 35 32.4283 35 31.5C35 30.5717 34.6313 29.6815 33.9749 29.0251C33.3185 28.3687 32.4283 28 31.5 28ZM12.25 14C10.8576 14 9.52226 14.5531 8.53769 15.5377C7.55312 16.5223 7 17.8576 7 19.25V43.75C7 45.1424 7.55312 46.4777 8.53769 47.4623C9.52226 48.4469 10.8576 49 12.25 49H50.75C52.1424 49 53.4777 48.4469 54.4623 47.4623C55.4469 46.4777 56 45.1424 56 43.75V19.25C56 17.8576 55.4469 16.5223 54.4623 15.5377C53.4777 14.5531 52.1424 14 50.75 14H12.25ZM10.5 19.25C10.5 18.7859 10.6844 18.3408 11.0126 18.0126C11.3408 17.6844 11.7859 17.5 12.25 17.5H17.5V21C17.5 21.9283 17.1313 22.8185 16.4749 23.4749C15.8185 24.1313 14.9283 24.5 14 24.5H10.5V19.25ZM10.5 28H14C15.8565 28 17.637 27.2625 18.9497 25.9497C20.2625 24.637 21 22.8565 21 21V17.5H42V21C42 22.8565 42.7375 24.637 44.0503 25.9497C45.363 27.2625 47.1435 28 49 28H52.5V35H49C47.1435 35 45.363 35.7375 44.0503 37.0503C42.7375 38.363 42 40.1435 42 42V45.5H21V42C21 40.1435 20.2625 38.363 18.9497 37.0503C17.637 35.7375 15.8565 35 14 35H10.5V28ZM45.5 17.5H50.75C51.2141 17.5 51.6592 17.6844 51.9874 18.0126C52.3156 18.3408 52.5 18.7859 52.5 19.25V24.5H49C48.0717 24.5 47.1815 24.1313 46.5251 23.4749C45.8687 22.8185 45.5 21.9283 45.5 21V17.5ZM52.5 38.5V43.75C52.5 44.2141 52.3156 44.6592 51.9874 44.9874C51.6592 45.3156 51.2141 45.5 50.75 45.5H45.5V42C45.5 41.0717 45.8687 40.1815 46.5251 39.5251C47.1815 38.8687 48.0717 38.5 49 38.5H52.5ZM17.5 45.5H12.25C11.7859 45.5 11.3408 45.3156 11.0126 44.9874C10.6844 44.6592 10.5 44.2141 10.5 43.75V38.5H14C14.9283 38.5 15.8185 38.8687 16.4749 39.5251C17.1313 40.1815 17.5 41.0717 17.5 42V45.5ZM59.5 43.75C59.5 46.0706 58.5781 48.2962 56.9372 49.9372C55.2962 51.5781 53.0706 52.5 50.75 52.5H14.2975C14.6595 53.524 15.3303 54.4105 16.2173 55.0374C17.1043 55.6643 18.1639 56.0006 19.25 56H50.75C53.9989 56 57.1147 54.7094 59.4121 52.4121C61.7094 50.1147 63 46.9989 63 43.75V26.25C63.0006 25.1639 62.6643 24.1043 62.0374 23.2173C61.4105 22.3303 60.524 21.6595 59.5 21.2975V43.75Z" fill="#F8F8F8"/>
</svg>
